<svg width="323" height="432" viewBox="0 0 323 432" fill="none" xmlns="http://www.w3.org/2000/svg">
<g opacity="0.1">
<path fill-rule="evenodd" clip-rule="evenodd" d="M285.302 346.639C287.379 349.517 290.494 351.126 293.639 349.597C299.508 346.719 298.951 336.299 294.044 332.582C297.628 331.475 300.299 328.755 299.266 322.981C298.609 319.302 295.996 316.558 293.166 315.394C290.834 314.443 287.499 315.46 285.653 317.652C285.561 316.791 285.43 315.883 285.165 314.997C284.314 311.897 281.586 309.246 278.788 310.081C276.085 310.848 274.122 313.713 273.843 317.081C273.543 320.613 274.567 323.481 275.897 326.306C271.103 323.009 264.362 323.576 263.223 331.54C262.713 335 265.016 338.973 268.002 339.232C269.093 339.311 270.127 339.111 271.143 338.795C269.016 344.867 268.762 351.769 274.475 354.959C279.061 357.511 285.052 352.519 285.302 346.639V346.639ZM277.246 329.085C277.284 329.178 277.303 329.248 277.341 329.318C277.379 329.388 277.418 329.412 277.456 329.459C277.282 329.806 277.147 330.177 277.011 330.547C274.796 329.156 272.581 327.369 269.996 327.509C268.177 327.609 267.023 329.133 267.168 331.32C267.313 333.506 269.126 335.382 270.809 335.7C272.742 336.066 275.12 334.785 276.524 333.077C276.484 333.425 276.445 333.774 276.424 334.146C276.405 334.169 276.424 334.169 276.424 334.192C276.405 334.215 276.405 334.215 276.386 334.238C276.116 334.701 276 334.956 276 334.956C275.714 334.86 275.387 335.066 275.31 335.391C274.999 336.621 271.263 337.401 270.228 337.717C266.491 338.823 263.536 335.054 264.509 330.599C266.124 323.336 273.699 325.194 277.246 329.085V329.085ZM278.947 335.331C278.89 335.214 278.814 335.097 278.661 335.026C278.241 334.859 277.535 334.016 277.556 333.667C277.695 332.041 277.969 330.579 278.892 329.332C279.873 327.946 282.111 328.64 283.257 329.464C284.861 330.687 284.792 333.895 283.313 335.16C282.315 335.988 280.495 336.367 279.503 335.382C279.293 335.171 279.101 335.192 278.947 335.331ZM284.71 319.085C284.71 319.131 284.691 319.154 284.671 319.177C284.575 319.409 284.593 319.618 284.669 319.805C284.468 322.454 283.406 325.001 282.078 327.105C282.02 327.221 282.001 327.314 281.981 327.407C281.656 327.311 281.331 327.261 281.005 327.258C282.258 325.038 283.34 322.048 283.12 319.373C282.936 317.279 281.834 315.014 279.88 315.089C278.138 315.167 277.535 317.765 277.376 319.415C277.117 322.318 278.084 325.14 279.473 327.454C278.994 327.612 278.552 327.911 278.187 328.349C278.149 328.302 278.13 328.302 278.111 328.256C275.887 323.679 273.358 318.867 276.095 313.684C278.6 308.94 283.165 311.957 284.337 316.175C284.621 317.131 284.733 318.108 284.71 319.085V319.085ZM285.47 331.553C285.395 331.041 285.263 330.551 285.073 330.084C287.333 329.988 290.205 329.898 292.125 328.404C293.699 327.186 294.128 324.864 293.389 322.859C292.479 320.386 290.181 320.435 288.454 321.42C286.191 322.748 284.706 325.617 283.911 328.423C283.625 328.188 283.338 328 283.014 327.834C284.015 326.239 284.787 324.502 285.233 322.693C285.486 321.719 285.642 320.744 285.703 319.721C287.343 316.272 291.614 315.822 294.327 317.404C296.505 318.655 297.855 321.387 298.343 324.158C299.882 332.774 289.737 332.288 285.47 331.553V331.553ZM285.405 344.618C284.321 342.678 282.474 339.802 283.095 337.297C283.134 337.088 283.116 336.925 283.039 336.785C283.366 336.625 283.653 336.419 283.922 336.212C284.156 340.561 286.771 348.21 291.318 345.345C293.333 344.084 293.343 341.224 292.413 339.101C291.083 335.973 287.851 335.108 285.23 334.387C285.385 333.923 285.502 333.413 285.542 332.925C287.609 333.246 290.154 333.385 292.492 332.964C292.549 333.08 292.625 333.197 292.759 333.245C297.422 335.681 298.403 345.059 293.778 348.087C290.574 350.197 287.232 347.866 285.405 344.618V344.618ZM274.786 353.683C269.28 351.379 270.571 343.532 272.369 338.666C272.407 338.55 272.408 338.434 272.408 338.341C272.753 338.205 273.118 338.068 273.444 337.909C274.671 337.408 275.628 337.51 276.148 336.398C276.34 336.4 276.57 336.309 276.647 336.077C276.763 335.846 276.917 335.615 277.071 335.36C277.395 335.689 277.758 335.971 278.045 336.136C276.049 337.351 274.796 339.78 274.213 342.333C273.727 344.351 274.233 347.61 275.991 348.579C278.093 349.737 279.898 348.195 280.634 345.807C281.447 343.281 280.713 339.577 279.841 337.082C280.51 337.344 281.238 337.374 281.985 337.171C281.439 340.026 283.113 343.109 284.502 345.377C284.33 345.468 284.214 345.653 284.213 345.932C284.404 351.723 278.972 355.441 274.786 353.683Z" fill="#272727"/>
<path fill-rule="evenodd" clip-rule="evenodd" d="M283.273 362.971C284.674 361.984 286.212 360.208 286.985 358.215C287.165 357.783 287.294 357.342 287.372 356.893C287.437 356.584 287.476 356.274 287.49 355.965C288.809 356.604 290.263 356.966 291.718 357.048C292.139 357.075 292.541 357.056 292.943 357.059C297.002 356.84 300.974 354.504 302.904 349.941C305.183 344.498 304.389 336.075 299.556 333.15C305.368 329.993 307.569 319.272 303.704 313.1C300.811 308.495 291.887 303.649 288.819 310.224C286.775 303.72 280.485 301.107 275.194 303.175C272.759 304.153 270.837 306.345 269.812 309.172C269.077 311.164 268.033 314.038 268.58 316.344C262.517 314.872 256.651 322.19 255.46 328.921C254.288 335.536 259.347 344.927 265.148 345.071C263.204 353.377 266.428 362.054 273.445 364.697C276.772 365.959 280.336 365.107 283.273 362.971V362.971ZM272.284 362.803C266.416 360.054 264.551 351.459 266.355 344.78C266.491 344.293 266.147 343.941 265.822 343.938C265.726 343.844 265.612 343.774 265.44 343.772C260.212 343.888 256.182 335.809 256.432 329.999C256.724 323.19 263.624 315.626 269.283 317.931C269.608 318.074 269.858 317.82 269.936 317.519C270.07 317.334 270.109 317.102 269.957 316.822C268.93 314.906 269.993 312.079 270.632 310.179C271.483 307.675 272.925 305.945 274.92 304.754C279.889 301.799 286.636 305.16 288.048 311.752C288.218 312.451 288.965 312.341 289.12 311.808C289.274 311.763 289.427 311.648 289.504 311.416C291.748 304.997 300.002 309.859 302.478 313.345C306.517 318.984 304.353 330.077 298.314 332.302C298.065 332.416 297.93 332.647 297.929 332.903C297.756 333.25 297.811 333.762 298.194 333.905C303.356 335.973 303.483 343.251 302.24 348.378C300.492 355.476 292.215 357.239 287.381 354.499C287.19 354.381 286.998 354.426 286.844 354.517C286.557 354.585 286.326 354.885 286.363 355.304C286.885 359.284 282.337 362.405 279.882 363.406C277.39 364.383 274.692 363.941 272.284 362.803V362.803Z" fill="#272727"/>
<path fill-rule="evenodd" clip-rule="evenodd" d="M279.883 363.407C282.338 362.406 286.886 359.285 286.364 355.305C286.327 354.886 286.558 354.586 286.845 354.518C286.999 354.427 287.191 354.382 287.382 354.5C292.216 357.24 300.493 355.477 302.241 348.379C303.484 343.252 303.357 335.974 298.195 333.905C297.812 333.762 297.757 333.251 297.93 332.903C297.931 332.648 298.066 332.416 298.315 332.302C304.354 330.078 306.518 318.984 302.479 313.346C300.003 309.86 291.749 304.997 289.506 311.417C289.428 311.648 289.275 311.763 289.121 311.808C288.966 312.342 288.219 312.451 288.049 311.752C286.637 305.161 279.89 301.799 274.921 304.754C272.926 305.945 271.484 307.676 270.633 310.179C269.994 312.08 268.931 314.907 269.958 316.822C270.11 317.102 270.071 317.335 269.937 317.519C269.859 317.821 269.609 318.074 269.284 317.932C263.625 315.626 256.725 323.19 256.433 330C256.183 335.809 260.213 343.889 265.441 343.773C265.613 343.775 265.727 343.845 265.823 343.939C266.148 343.942 266.492 344.294 266.356 344.781C264.552 351.46 266.417 360.055 272.285 362.804C274.693 363.942 277.391 364.384 279.883 363.407V363.407ZM274.476 354.966C268.763 351.777 269.017 344.874 271.144 338.802C270.128 339.119 269.094 339.319 268.003 339.239C265.017 338.98 262.714 335.007 263.224 331.548C264.363 323.584 271.104 323.016 275.898 326.314C274.568 323.489 273.544 320.62 273.844 317.089C274.124 313.721 276.087 310.855 278.789 310.089C281.587 309.254 284.315 311.905 285.166 315.005C285.431 315.891 285.562 316.798 285.654 317.659C287.5 315.467 290.835 314.451 293.167 315.402C295.997 316.566 298.61 319.309 299.267 322.988C300.3 328.763 297.629 331.483 294.045 332.59C298.952 336.307 299.509 346.727 293.64 349.604C290.495 351.133 287.38 349.525 285.303 346.647C285.053 352.526 279.062 357.518 274.476 354.966V354.966Z" fill="#272727"/>
<path d="M287.424 357.022C296.292 365.95 288.937 379.462 284.99 389.092C283.423 392.944 282.085 397.03 281.993 401.408C281.88 406.204 282.856 412.361 286.028 415.673C288.264 418.022 292.365 419.176 294.104 415.326C295.071 413.192 295.407 410.284 293.456 408.753C292.328 407.881 288.363 406.355 288.523 409.733C288.612 411.714 290.792 413.806 290.592 410.544C290.556 409.938 291.247 409.734 291.553 410.11C291.667 410.25 291.782 410.391 291.896 410.532C292.355 410.885 292.084 411.651 291.662 411.741C291.366 414.207 289.485 414.539 288.036 412.081C286.625 409.67 287.999 406.282 290.473 406.281C293.273 406.259 296.448 408.826 295.974 412.618C295.422 417.107 291.995 420.71 288.127 418.766C278.65 414.024 280.145 397.898 283.801 388.988C287.458 380.101 295.178 366.569 286.825 358.157C286.29 357.617 286.87 356.481 287.424 357.022V357.022Z" fill="#272727"/>
<path d="M288.203 363.793C288.184 363.793 288.184 363.793 288.165 363.793C286.021 363.704 283.761 364.125 282.033 365.759C280.035 367.646 279.279 370.381 278.312 373.137C278.1 373.716 278.691 374.162 279.094 373.934C281.089 372.743 283.368 372.578 285.382 371.434C287.606 370.176 288.306 367.209 288.966 364.59C289.141 363.987 288.587 363.587 288.203 363.793V363.793Z" fill="#272727"/>
<path d="M286.609 374.621C286.533 374.55 286.437 374.503 286.322 374.479C280.907 374.059 276.815 378.204 276.102 384.773C276.043 385.237 276.578 385.613 276.904 385.384C278.19 384.396 279.471 384.779 280.87 384.536C282.038 384.338 283.169 383.813 284.11 382.962C285.07 382.088 285.763 381.142 286.437 379.939C287.15 378.668 287.022 376.762 287.391 375.394C287.566 374.746 286.993 374.392 286.609 374.621V374.621Z" fill="#272727"/>
<path d="M281.502 388.246C281.463 388.246 281.444 388.223 281.387 388.222C279.491 388.438 277.251 388.464 275.733 390.1C273.889 392.082 272.845 394.814 272.108 397.619C271.991 398.083 272.372 398.621 272.756 398.461C274.845 397.713 277.01 397.291 278.89 395.937C281.193 394.261 281.547 391.732 282.38 388.928C282.593 388.233 281.886 387.878 281.502 388.246V388.246Z" fill="#272727"/>
<path d="M278.853 403.714C277.033 403.977 275.441 404.638 274.571 406.771C273.586 409.182 274.167 412.631 274.503 415.17C274.597 415.776 275.248 415.828 275.498 415.388C276.655 413.398 278.555 412.344 279.73 410.377C280.982 408.317 280.185 406.216 279.771 404.048C279.639 403.465 279.122 403.438 278.853 403.714V403.714Z" fill="#272727"/>
<path d="M282.661 416.149C281.961 418.935 281.723 421.4 282.709 424.155C283.146 425.369 283.64 426.444 284.384 427.405C285.432 428.787 286.789 429.66 287.646 431.297C287.893 431.788 288.487 431.747 288.642 431.19C289.34 428.845 289.73 426.778 288.973 424.397C287.93 421.176 284.64 419.82 283.943 416.463C283.906 416.253 283.791 416.112 283.677 416.042C283.448 415.621 282.816 415.545 282.661 416.149V416.149Z" fill="#272727"/>
<path d="M291.723 357.194C292.712 359.625 294.009 361.709 294.728 364.301C295.467 366.892 294.805 369.844 294.201 372.354C292.878 377.815 290.464 382.358 287.973 387.11C284.169 394.342 279.912 404.924 283.22 413.5C283.524 414.271 284.485 413.651 284.2 412.857C280.037 402.06 288.078 389.952 292.329 381.21C294.106 377.593 295.638 372.995 296.017 368.783C296.456 363.85 294.415 360.781 292.703 356.574C292.38 355.803 291.4 356.423 291.723 357.194Z" fill="#272727"/>
<path d="M290.056 390.416C288.308 391.866 288.452 394.427 288.98 396.688C289.377 398.297 290.195 399.747 291.168 400.919C292.293 402.302 293.959 402.41 294.795 404.186C295.004 404.723 295.636 404.658 295.792 404.078C296.49 401.572 296.211 399.103 295.454 396.653C294.582 393.946 292.595 392.625 290.839 390.888C290.764 390.469 290.421 390.117 290.056 390.416Z" fill="#272727"/>
<path d="M295.016 379.282C294.805 379.187 294.652 379.232 294.537 379.371C294.46 379.386 294.383 379.439 294.306 379.532C292.65 381.844 293.443 385.296 294.258 387.887C295.356 391.434 298.01 394.041 299.896 396.944C300.163 397.319 300.758 397.184 300.836 396.696C302.163 389.749 299.904 383.794 295.36 379.564C295.322 379.518 295.283 379.478 295.245 379.447C295.207 379.423 295.188 379.4 295.15 379.353L295.15 379.376C295.092 379.329 295.073 379.306 295.016 379.282Z" fill="#272727"/>
<path d="M297.03 369.151C295.909 372.073 296.398 374.683 297.863 377.325C299.5 380.248 302.291 381.785 303.908 384.684C304.175 385.152 304.749 385.157 304.924 384.554C305.816 381.444 304.793 378.085 303.443 375.35C302.816 374.065 302.111 372.872 301.119 371.933C300.336 371.205 298.921 370.517 298.35 369.582C298.236 369.418 298.102 369.347 297.987 369.346C297.835 368.833 297.262 368.571 297.03 369.151V369.151Z" fill="#272727"/>
<path d="M296.616 358.497C296.558 358.566 296.52 358.636 296.481 358.728C296.309 358.75 296.136 358.888 296.078 359.167C294.791 365.666 303.301 368.603 305.642 372.716C305.87 373.114 306.54 373.236 306.657 372.586C307.362 368.174 305.364 364.621 303.135 361.322C301.726 359.24 298.731 356.074 296.616 358.497V358.497Z" fill="#272727"/>
<path fill-rule="evenodd" clip-rule="evenodd" d="M219.555 107.204C232.278 108.385 246.925 101.482 252.05 86.5564C252.553 85.0522 252.979 83.4776 253.291 81.8324C255.571 81.3188 257.756 80.3634 259.713 78.965C267.12 73.6691 272.857 63.9715 275.057 53.5694C275.684 53.0798 276.286 52.5049 276.862 51.8446C281.897 46.1099 283.611 37.6067 286.775 30.4394C288.3 26.9945 290.439 22.8356 293.867 22.0769C297.028 21.3623 300.14 23.6182 302.524 25.8909C302.181 25.5861 303.256 24.5512 302.55 23.895C301.482 22.8874 300.394 21.9725 299.172 21.2885C297.319 20.2507 295.234 19.8608 293.317 20.7722C288.773 22.8672 286.701 29.9281 284.884 34.8327C282.662 40.7781 280.09 48.2292 275.369 51.9474C275.838 49.1894 276.077 46.4062 276.011 43.6435C275.844 36.7252 273.592 29.2776 269.072 24.7577C266.841 22.5328 263.84 21.4848 261.06 22.7367C257.974 24.1483 256.104 27.8222 255.001 31.3869C252.6 39.2109 254.005 47.6722 259.845 52.552C264.31 56.3055 270.087 57.0997 274.654 53.8443C273.409 59.5664 270.959 65.0224 267.747 69.4967C264.035 74.663 259.159 78.7511 253.584 80.0942C254.545 73.7197 253.995 66.7515 251.661 61.0905C250.257 57.6892 247.721 54.8349 244.39 55.2231C241.326 55.5672 238.771 58.2834 237.344 61.4506C235.8 64.8256 235.077 69.09 236.155 72.8366C237.176 76.3273 239.866 78.9509 242.578 80.4373C245.864 82.2538 249.652 82.6356 253.234 81.8551C253.234 81.8706 253.234 81.8938 253.233 81.9248C251.691 90.6384 245.562 97.1758 239.271 100.996C235.703 103.146 231.87 104.574 227.925 105.236C228.213 105.099 228.52 104.986 228.807 104.849C232.392 103.163 235.751 100.431 238.061 96.668C239.697 94.0133 241.667 89.2262 239.726 86.0522C237.785 82.8782 233.28 84.8343 230.789 85.7406C227.818 86.8515 224.866 88.1715 221.99 89.6546C215.144 93.2146 208.111 95.8909 200.793 97.7059C197.517 98.5124 194.204 99.1793 190.872 99.6835C190.47 99.7495 187.424 100.558 186.755 100.32C188.167 101.331 190.252 101.767 191.781 102.338C195.814 103.813 199.906 105.01 204.056 105.859C208.914 106.854 214.328 107.621 219.555 107.204V107.204ZM274.985 52.2457C274.102 52.8878 273.144 53.3899 272.109 53.752C266.417 55.6976 259.311 51.8277 256.174 45.9042C253.151 40.2139 253.773 32.0955 257.428 27.0216C261.313 21.5784 267.144 23.4872 270.61 28.4619C275.408 35.4215 276.449 44.042 274.985 52.2457V52.2457ZM253.489 80.1166C252.633 80.3256 251.765 80.4571 250.884 80.5112C244.95 80.9458 237.135 77.1626 236.187 69.0999C235.351 62.0131 241.849 53.9239 247.653 57.991C250.612 60.0599 251.899 64.1101 252.728 67.9008C253.594 71.8544 253.943 76.0587 253.489 80.1166V80.1166Z" fill="#272727"/>
<path d="M228.788 105.072C231.28 103.89 226.296 106.278 228.788 105.072V105.072Z" fill="#272727"/>
<path d="M186.758 100.656C186.707 100.641 186.668 100.617 186.643 100.586C186.681 100.602 186.72 100.625 186.758 100.656Z" fill="#272727"/>
<path d="M131.751 61.2854C131.561 61.005 132.138 60.1045 132.158 59.7796C132.198 59.3851 131.416 58.519 131.226 58.2154C130.503 57.0246 129.856 55.7881 129.287 54.5058C128.128 51.8714 127.315 49.0079 126.886 46.0781C126.082 40.4744 126.716 34.5817 128.896 29.5387C134.068 17.6022 146.949 12.399 156.899 18.595C162.915 22.3408 167.466 29.2318 168.107 37.4813C168.197 38.829 168.324 40.8969 167.287 41.7701C165.867 42.965 164.23 40.4657 163.468 39.2978C161.317 36.0276 160.164 31.9535 159.489 27.8836C159.133 25.6511 159.121 23.77 160.085 21.8047C161.01 19.9088 162.145 18.1772 163.49 16.703C165.796 14.1459 168.579 12.1968 171.493 10.8526C177.302 8.18736 184.366 7.92514 189.343 13.0318C189.191 12.8679 189.673 11.8504 189.712 11.665C189.848 11.1321 188.931 10.5899 188.625 10.3317C187.499 9.41602 186.277 8.68525 184.977 8.18602C182.454 7.21146 179.756 7.04811 177.151 7.44292C171.751 8.27728 166.399 11.4575 162.745 16.348C158.572 21.9306 158.123 29.7524 160.741 36.4869C161.405 38.188 162.26 39.8212 163.27 41.2467C163.955 42.2281 164.946 43.6535 166.113 43.5942C167.568 43.5375 167.884 41.0091 168.08 39.7104C168.393 37.7393 168.457 35.6964 168.216 33.6739C167.287 25.654 161.569 18.8688 155.569 15.9591C149.454 12.9787 142.637 13.9165 137.072 18.0469C124.962 27.0654 122.705 48.247 131.751 61.2854C131.751 61.2854 126.209 53.2941 131.751 61.2854V61.2854Z" fill="#272727"/>
<path d="M212.146 127.609C219.008 137.157 210.739 140.725 216.304 143.261C220.626 145.234 224.843 133.7 212.146 127.609Z" fill="#272727"/>
<path d="M222.122 133.404C229.272 142.757 221.099 146.582 226.741 148.941C231.101 150.776 234.993 139.123 222.122 133.404Z" fill="#272727"/>
<path d="M232.648 137.508C239.779 146.861 231.625 150.666 237.248 153.045C241.628 154.88 245.519 143.227 232.648 137.508Z" fill="#272727"/>
<path d="M242.054 139.143C251.065 146.601 243.96 152.2 249.969 153.206C254.619 153.982 255.83 141.724 242.054 139.143Z" fill="#272727"/>
<path d="M217.5 161.379C232.089 172.371 223.397 199.214 233.772 188.998C237.42 197.105 248.291 192.882 239.77 176.929C246.438 170.01 234.624 164.859 217.5 161.379Z" fill="#272727"/>
<path d="M251.736 139.123C261.823 144.917 255.75 151.679 261.819 151.625C266.528 151.596 265.73 139.29 251.736 139.123Z" fill="#272727"/>
<path d="M261.122 137.224C272.114 140.885 267.454 148.729 273.411 147.46C278.009 146.49 274.855 134.588 261.122 137.224Z" fill="#272727"/>
<path d="M273.023 131.819C283.611 136.537 278.244 143.889 284.276 143.208C288.948 142.689 286.943 130.556 273.023 131.819Z" fill="#272727"/>
<path d="M40.2675 61.7541C42.3109 57.7739 44.5823 54.2865 47.8096 51.1624C50.3454 48.698 53.0524 46.5296 56.0071 44.6777C54.7626 44.7233 53.6322 44.986 52.5977 45.1908C49.7241 45.7488 46.8879 46.5622 44.2037 47.7108C39.1805 49.8153 33.8652 53.3096 31.7212 58.6424C30.7555 61.045 30.4203 63.7879 31.0813 66.3255C31.5915 68.1946 33.4372 71.3725 35.6831 69.6701C37.8139 68.0252 39.0722 64.1151 40.2675 61.7541C40.7686 60.7982 40.2675 61.7541 40.2675 61.7541V61.7541Z" fill="#272727"/>
<path d="M29.2802 57.8961C30.7054 55.4601 32.2635 53.3392 34.3949 51.4989C36.0656 50.0264 37.8315 48.6921 39.7685 47.6929C39.0223 47.587 38.2749 47.8143 37.6046 47.9053C35.7852 48.1409 33.965 48.5726 32.24 49.1818C29.0008 50.3436 25.5288 52.3461 23.9857 55.6241C23.3104 57.1072 22.998 58.8296 23.3368 60.4411C23.5814 61.6399 24.6461 63.7101 26.1045 62.7059C27.5053 61.7599 28.4328 59.3382 29.2802 57.8961C29.6268 57.3115 29.2802 57.8961 29.2802 57.8961V57.8961Z" fill="#272727"/>
<path d="M22.3951 53.124C23.8742 51.6137 25.3907 50.3581 27.2888 49.4195C28.7844 48.6528 30.2792 48.0817 31.9266 47.6687C31.3152 47.3884 30.7982 47.4612 30.3008 47.3972C28.9042 47.2456 27.5072 47.2113 26.1288 47.3337C23.5443 47.5607 20.6514 48.3714 18.9405 50.4857C18.1716 51.4166 17.6313 52.6238 17.5886 53.8558C17.5471 54.7748 17.962 56.4811 19.2267 56.0445C20.4149 55.6071 21.5307 54.0148 22.3951 53.124C22.3951 53.124 22.7601 52.7561 22.3951 53.124Z" fill="#272727"/>
<path d="M214.234 104.355C217.964 104.785 225.832 103.834 226.519 98.8865C227.148 94.4848 217.485 94.0904 214.845 93.8676C209.431 93.4009 204.19 92.7215 198.933 91.2032C196.295 90.4538 193.715 89.5488 191.154 88.5271C190.887 88.4072 188.287 87.6191 188.25 87.2871C188.667 88.4033 190.385 89.6893 191.186 90.4975C193.34 92.6853 195.61 94.7378 198.034 96.5969C202.633 100.137 208.361 103.767 214.234 104.355C218.078 104.786 212.321 104.16 214.234 104.355V104.355Z" fill="#272727"/>
<path d="M230.233 63.2103C232.427 59.8817 233.972 55.9972 234.408 51.9835C234.725 48.9485 234.549 44.693 231.972 42.6271C226.666 38.3368 219.5 50.9629 217.325 54.2329C213.129 60.6571 209.012 66.6312 203.194 71.6856C200.256 74.2223 197.128 76.5218 193.847 78.5844C192.389 79.4902 190.931 80.3373 189.416 81.1249C188.86 81.4326 188.015 82.0705 187.364 82.142C190.352 81.6445 193.529 81.8938 196.536 81.4356C201.056 80.7583 205.52 79.6295 209.794 77.9891C217.423 75.0513 225.614 70.3161 230.233 63.2103C231.869 60.7382 228.616 65.7022 230.233 63.2103V63.2103Z" fill="#272727"/>
<path d="M84.9542 54.632C81.8449 57.1586 79.078 60.2554 77.1324 63.8102C75.7069 66.4328 74.1627 70.1286 75.3576 73.15C78.1839 80.2134 90.1369 71.704 93.3414 69.2956C99.8848 64.4021 105.228 58.0697 112.913 54.849C116.727 53.2481 120.883 52.5496 124.976 53.1594C126.965 53.4344 128.896 54.0213 130.711 54.9002C131.093 55.08 132.106 55.5401 132.869 56.1733C132.719 55.3902 131.117 53.7517 130.659 53.278C129.077 51.6006 127.245 50.1941 125.258 49.0595C120.789 46.531 115.645 45.5194 110.573 45.6221C101.712 45.8021 91.9402 49.0399 84.9542 54.632C80.4246 58.2963 87.2188 52.8194 84.9542 54.632V54.632Z" fill="#272727"/>
<path d="M183.755 80.2057C183.732 81.3074 184.596 80.8032 185.306 80.6323C186.443 80.3535 187.562 80.0156 188.661 79.6184C190.867 78.8307 192.997 77.826 195.031 76.6236C199.369 74.1031 203.212 70.6536 206.348 66.6864C212.14 59.3578 216.469 48.4748 213.878 38.9291C212.686 34.4917 209.846 30.5122 205.754 28.4699C201.93 26.5479 196.203 26.2624 192.821 29.283C189.651 32.1087 189.457 38.2263 193.587 40.2887C195.385 41.1896 197.818 41.1122 198.821 39.0942C199.496 37.7621 199.082 35.6925 197.281 35.6966C196.932 36.8545 198.637 36.7905 198.134 38.2816C197.534 40.067 195.447 39.9505 194.128 39.1915C190.476 37.1136 191.645 31.4766 194.984 29.7936C202.775 25.8862 210.871 33.1774 212.243 40.863C213.802 49.5143 209.977 58.8275 204.954 65.5528C199.681 72.6104 192.153 77.9171 183.755 80.2057C187.744 79.1186 183.755 80.2057 183.755 80.2057Z" fill="#272727"/>
<path d="M262.293 223.746C280.163 225.707 282.025 207.955 282.025 207.955C284.253 211.018 288.898 218.302 298.267 220.994C310.142 224.395 319.445 218.683 321.145 208.489C322.827 198.295 311.386 197.077 310.162 202.191C309.074 206.814 313.084 209.323 316.081 206.404C314.518 215.343 301.128 218.349 295.33 212.684C294.033 211.416 295.831 211.726 295.831 211.726C301.583 214.191 305.057 205.994 305.057 205.994C301.702 207.477 299.298 199.859 290.151 199.289C288.754 199.198 290.096 198.542 290.096 198.542C296.178 199.851 302.156 192.816 302.156 192.816C297.41 192.421 289.044 182.022 276.776 187.198C273.422 188.602 271.294 184.029 271.294 184.029C272.047 183.983 272.775 183.898 273.477 183.773C273.975 183.777 274.472 183.768 274.97 183.746C276.521 183.662 278.053 183.439 279.566 183.06C282.765 182.282 285.833 180.836 288.538 178.936C293.527 175.406 298.238 169.321 298.318 162.804C298.348 159.78 297.267 156.728 295.035 154.647C292.956 152.706 289.381 151.438 286.678 152.71C284.147 153.906 282.928 157.723 285.179 159.824C286.152 160.735 287.72 161.142 288.719 160.051C289.391 159.33 289.511 157.957 288.364 157.613C287.921 158.277 289.03 158.561 288.434 159.42C287.742 160.415 286.423 159.952 285.717 159.22C283.791 157.22 285.544 153.878 287.957 153.448C293.607 152.456 297.433 158.595 296.937 163.714C296.361 169.481 292.247 174.649 287.852 177.948C284.628 180.374 280.852 182.03 276.926 182.762C289.615 177.453 289.972 157.647 275.633 158.407C273.125 158.522 271.737 161.455 274.375 162.42C275.381 159.308 281.305 162.029 278.396 167.344C274.081 175.218 260.684 153.055 219.293 155.663C269.631 166.895 264.718 198.029 259.069 198.844C257.02 199.141 254.997 197.454 254.756 195.175C254.645 194.173 254.936 192.938 255.742 192.278C256.702 191.481 258.75 191.538 259.051 193.052C259.164 193.682 258.931 194.445 258.242 194.557C257.169 194.725 257.69 193.571 256.848 193.446C255.693 195.576 260.379 196.441 260.295 193.083C260.246 190.53 257.341 189.563 255.328 190.448C253.526 191.238 252.638 193.272 252.689 195.216C252.792 198.456 255.389 200.383 258.314 201.233C265.905 203.458 270.254 196.761 268.801 190.781C270.191 192.913 271.484 195.28 272.662 197.882C281.417 217.452 261.863 220.837 259.356 215.142C258.597 213.447 260.858 212.759 261.023 214.822C266.582 212.416 259.303 203.146 254.57 210.094C249.818 217.042 259.385 223.427 262.293 223.746V223.746Z" fill="#272727"/>
<path d="M68.2629 37.5209C67.8087 36.1074 66.837 34.8646 65.4426 34.1065C62.6537 32.6294 59.224 33.7284 57.7784 36.5699C57.1617 37.7766 57.0038 39.1055 57.2482 40.3407C58.5891 40.0025 59.9301 39.6448 61.2902 39.2873C63.5889 38.7047 65.9259 38.1031 68.2629 37.5209Z" fill="#272727"/>
<path d="M88.1881 29.2183C85.3802 27.7226 81.9507 28.8207 80.5052 31.6601C80.004 32.6715 79.8086 33.7838 79.9005 34.8405C83.6347 34.1757 87.4066 33.6873 91.1967 33.4727C90.9159 31.7102 89.8499 30.1154 88.1881 29.2183V29.2183Z" fill="#272727"/>
<path d="M76.7407 31.1993C73.9518 29.7028 70.503 30.8015 69.0574 33.6427C68.4598 34.8495 68.3021 36.1391 68.5273 37.374C72.2051 36.4734 75.921 35.6318 79.6363 34.9468C79.2591 33.3973 78.2498 31.9976 76.7407 31.1993V31.1993Z" fill="#272727"/>
<path d="M102.865 33.8665C102.815 31.7955 101.693 29.8306 99.7831 28.795C96.9753 27.3007 93.5459 28.3978 92.1004 31.254C91.7535 31.934 91.5595 32.6742 91.4994 33.4158C93.6814 33.3018 95.8631 33.2855 98.0635 33.3866C99.6707 33.4685 101.271 33.6285 102.865 33.8665V33.8665Z" fill="#272727"/>
<path d="M54.2399 37.0716C51.451 35.5754 48.0022 36.6738 46.5566 39.5341C45.9977 40.6236 45.8403 41.8347 45.9892 42.9904C49.7046 42.2859 53.3823 41.405 57.041 40.4653C56.5868 39.0522 55.6152 37.8097 54.2399 37.0716Z" fill="#272727"/>
<path d="M34.3363 44.3125C34.5934 41.9881 33.4536 39.6099 31.2952 38.4531C28.5063 36.9768 25.0575 38.075 23.612 40.915C23.4578 41.2263 23.3418 41.5576 23.2449 41.889C23.7034 42.1284 24.1619 42.3484 24.6206 42.5292C27.7355 43.7937 31.0255 44.2779 34.3363 44.3125V44.3125Z" fill="#272727"/>
<path d="M45.84 43.0718C45.4823 41.4267 44.4542 39.9505 42.8688 39.0938C40.0801 37.6187 36.6506 38.7162 35.2051 41.5539C34.7618 42.4285 34.5672 43.3449 34.5639 44.2632C37.2048 44.2712 39.8275 44.0251 42.3932 43.6415C43.5421 43.4777 44.691 43.2943 45.84 43.0718V43.0718Z" fill="#272727"/>
<path d="M111.041 31.5004C108.252 30.0246 104.842 31.1033 103.377 33.9227C107.088 34.4893 110.682 35.4848 114.122 36.8892C114.187 34.7199 113.047 32.577 111.041 31.5004Z" fill="#272727"/>
<path d="M20.8503 33.7317C18.825 32.6514 16.4887 32.9213 14.7994 34.2178C16.9128 37.437 19.851 40.1743 23.1375 41.8758C23.1952 41.7783 23.253 41.7005 23.2916 41.6028C24.7375 38.7542 23.6399 35.2122 20.8503 33.7317Z" fill="#272727"/>
<path d="M30.3742 33.8223C29.7767 34.9768 30.2311 36.4352 31.3777 37.0348C32.5051 37.6538 33.9234 37.1943 34.5019 36.02C35.0994 34.8655 34.645 33.4071 33.4984 32.8075C32.371 32.1885 30.9527 32.6479 30.3742 33.8223Z" fill="#272727"/>
<path d="M37.8799 32.5686C37.3015 33.743 37.7559 35.1817 38.8833 35.8008C40.0298 36.42 41.429 35.9604 42.0266 34.7862C42.6242 33.612 42.1698 32.1733 41.0232 31.5737C39.8766 30.9545 38.4775 31.4141 37.8799 32.5686V32.5686Z" fill="#272727"/>
<path d="M44.7546 30.6995C44.1761 31.8739 44.6114 33.3125 45.7579 33.9317C46.9045 34.5509 48.3036 34.0913 48.9012 32.9171C49.4797 31.7428 49.0444 30.3042 47.8978 29.7046C46.7513 29.0854 45.3521 29.545 44.7546 30.6995V30.6995Z" fill="#272727"/>
<path d="M52.012 28.8891C51.4144 30.0632 51.8689 31.502 53.0154 32.1212C54.1619 32.7404 55.5611 32.2808 56.1587 31.1066C56.7371 29.9323 56.2827 28.4935 55.1552 27.8941C54.0087 27.2749 52.6095 27.7346 52.012 28.8891V28.8891Z" fill="#272727"/>
<path d="M60.0373 26.6523C59.4397 27.8265 59.8942 29.2653 61.0407 29.8845C62.1873 30.4841 63.5865 30.0244 64.184 28.8699C64.7625 27.6956 64.308 26.2568 63.1806 25.6377C62.0341 25.0185 60.6349 25.4782 60.0373 26.6523Z" fill="#272727"/>
<path d="M68.3297 24.4159C67.7513 25.5706 68.1865 27.0289 69.3331 27.6284C70.4797 28.2476 71.8788 27.788 72.4764 26.6138C73.074 25.4593 72.6196 24.0009 71.473 23.4013C70.3265 22.7821 68.9273 23.2418 68.3297 24.4159Z" fill="#272727"/>
<path d="M76.9055 23.0092C76.3079 24.1834 76.7624 25.6222 77.9089 26.2414C79.0363 26.8604 80.4546 26.401 81.0331 25.2266C81.6307 24.0525 81.1762 22.6137 80.0297 21.9945C78.8831 21.3949 77.4839 21.8546 76.9055 23.0092Z" fill="#272727"/>
<path d="M85.1139 22.5628C84.5355 23.7372 84.9707 25.1954 86.1173 25.795C87.2638 26.4142 88.663 25.9545 89.2606 24.7804C89.8391 23.606 89.4038 22.1674 88.2572 21.5679C87.1106 20.9487 85.7115 21.4083 85.1139 22.5628V22.5628Z" fill="#272727"/>
<path d="M93.8733 23.5645C93.2757 24.719 93.7301 26.1774 94.8767 26.777C96.0232 27.3962 97.4224 26.9365 98.0009 25.7622C98.5985 24.588 98.144 23.1493 97.0166 22.5499C95.87 21.9306 94.4517 22.3901 93.8733 23.5645V23.5645Z" fill="#272727"/>
<path fill-rule="evenodd" clip-rule="evenodd" d="M148.176 173.921C147.22 179.177 152.814 183.37 156.962 179.556C157.032 181.462 157.542 183.312 159.05 184.563C161.417 186.508 164.043 185.411 165.582 183.146C166.571 184.883 168.521 185.764 170.476 184.877C171.665 184.338 172.549 183.461 173.108 182.248C173.687 180.996 173.423 179.599 173.256 178.243C174.459 179.157 175.892 179.719 177.519 179.772C181.079 179.862 182.468 176.947 182.747 173.826C184.907 174.552 187.149 173.982 188.419 171.892C190.133 169.019 187.752 165.679 185.845 163.698C182.946 160.687 178.912 159.101 175.513 156.832C172.457 154.783 169.14 150.924 168.388 147.166C168.294 146.713 167.853 146.906 167.68 147.14C167.545 147.335 167.638 147.984 167.523 148.258C166.943 149.687 164.891 150.907 163.701 151.78C162.185 152.907 160.573 153.914 158.962 154.863C155.701 156.799 152.326 158.518 149.141 160.592C147.396 161.736 145.707 162.978 144.151 164.399C141.847 166.52 140.612 169.436 142.075 172.474C143.234 174.939 146.067 174.905 148.176 173.921V173.921ZM167.714 153.622C167.714 153.681 167.733 153.74 167.733 153.799C168.033 155.471 168.544 157.086 169.132 158.663C169.739 160.24 170.423 161.778 171.203 163.238C172.002 164.718 172.858 166.159 173.887 167.504C173.395 165.869 172.826 164.312 172.238 162.756L170.683 158.598C171.425 160.018 172.243 161.4 173.138 162.724C174.071 164.088 175.043 165.392 176.187 166.581C175.561 165.043 174.858 163.584 174.116 162.124L171.93 157.803C171.873 157.724 171.835 157.626 171.797 157.547C172.483 158.404 173.214 159.228 173.99 160.021C174.982 161.012 176.031 161.963 177.215 162.759C176.473 161.515 175.673 160.369 174.854 159.243L172.396 155.902C171.577 154.775 170.758 153.688 169.996 152.562C169.825 152.285 169.634 151.969 169.444 151.614C170.72 153.628 172.494 155.353 174.365 156.783C175.625 157.756 176.962 158.613 178.318 159.41C179.483 160.108 180.802 160.649 181.717 161.698C182.556 162.668 182.896 164.026 183.102 165.285C183.552 167.803 181.02 169.353 178.918 168.352C178.67 168.252 178.248 168.406 178.362 168.76C179.101 170.908 178.634 173.005 176.773 174.345C175.794 175.063 174.606 175.21 173.479 174.768C172.638 174.446 171.205 173.53 170.653 172.779C170.024 171.91 169.973 169.984 169.786 168.941C169.147 165.479 168.144 162.111 167.831 158.612C167.684 156.922 167.651 155.272 167.714 153.622V153.622ZM167.345 160.71C167.681 163.129 168.381 165.472 168.832 167.873C169.076 169.191 169.301 170.548 169.641 171.847C169.924 172.989 170.495 173.937 170.051 175.112C169.626 176.247 168.646 177.201 167.403 176.974C166.466 176.789 165.895 175.626 165.515 174.856C165.363 174.541 164.942 174.635 164.845 174.929C164.208 176.475 163.247 177.724 161.429 177.355C160.167 177.089 159.349 175.667 158.97 174.525C158.401 172.89 158.827 171.597 159.196 169.989C160.304 165.128 162.178 160.371 164.376 155.813C163.99 156.851 163.66 157.909 163.331 158.966C162.905 160.534 162.497 162.102 162.204 163.71C161.893 165.318 161.657 166.927 161.575 168.576C162.25 167.069 162.791 165.542 163.314 164.014C163.643 163.015 163.952 162.016 164.262 161.017C164.203 161.351 164.145 161.684 164.086 162.037C163.812 163.92 163.594 165.824 163.492 167.748C163.371 169.652 163.325 171.577 163.453 173.503C163.938 171.641 164.289 169.758 164.621 167.895C164.972 166.013 165.247 164.149 165.54 162.266C165.566 162.083 165.593 161.893 165.619 161.697C165.673 162.64 165.746 163.564 165.877 164.508C166.082 166.12 166.382 167.734 166.875 169.29C166.976 167.66 167.001 166.05 167.007 164.439L167.023 159.627C167.013 158.828 167.016 158.029 167.032 157.231C167.085 158.39 167.177 159.55 167.345 160.71ZM150.057 166.925C150.349 165.572 151.579 164.326 152.348 163.272C153.463 161.769 154.636 160.345 155.866 158.981C157.192 157.48 158.689 156.275 160.244 155.129C160.954 154.605 161.683 154.1 162.412 153.596C161.465 154.518 160.53 155.459 159.608 156.42C158.416 157.726 157.244 159.051 156.129 160.436C155.014 161.821 153.937 163.226 152.955 164.75C154.376 163.662 155.681 162.475 156.968 161.249C157.525 160.704 158.063 160.178 158.601 159.613C157.601 160.92 156.62 162.228 155.697 163.595C154.638 165.138 153.618 166.72 152.732 168.421C154.096 167.117 155.364 165.733 156.594 164.33C157.728 163.043 158.804 161.717 159.862 160.39C159.495 161.133 159.148 161.896 158.82 162.679C158.26 163.99 157.758 165.322 157.389 166.733C158.293 165.601 159.082 164.43 159.833 163.218C160.564 162.046 161.251 160.854 161.893 159.641C161.72 160.033 161.546 160.424 161.392 160.816C159.963 164.28 158.859 167.845 158.157 171.513C157.943 172.552 157.727 174.259 156.387 174.267C155.564 174.26 154.361 173.287 154.134 172.48C153.908 171.613 154.256 170.595 154.527 169.772C154.643 169.4 154.184 169.16 153.934 169.394C151.995 171.066 149.493 169.513 150.057 166.925V166.925Z" fill="#272727"/>
<path fill-rule="evenodd" clip-rule="evenodd" d="M309.807 237.708C311.158 234.636 309.828 231.737 307.443 229.673C305.859 228.304 304.121 227.091 302.326 225.995C299.079 224.023 295.658 222.383 292.315 220.547C290.672 219.629 289.029 218.672 287.482 217.598C286.26 216.743 284.158 215.586 283.532 214.186C283.418 213.91 283.477 213.242 283.344 213.064C283.153 212.827 282.714 212.647 282.636 213.117C282.01 216.883 278.838 220.823 275.844 222.958C272.524 225.326 268.537 227 265.751 230.08C263.906 232.126 261.654 235.524 263.482 238.349C264.815 240.403 267.072 240.914 269.199 240.127C269.59 243.253 271.073 246.114 274.634 245.929C276.262 245.845 277.68 245.248 278.832 244.295C278.713 245.65 278.497 247.062 279.125 248.285C279.733 249.489 280.63 250.341 281.853 250.843C283.841 251.685 285.758 250.758 286.683 248.979C288.302 251.212 290.959 252.237 293.244 250.234C294.723 248.931 295.17 247.088 295.176 245.183C299.451 248.873 304.902 244.54 303.753 239.305C305.894 240.247 308.727 240.193 309.807 237.708ZM283.572 224.518C283.387 228.052 282.495 231.422 282.004 234.895C281.847 235.954 281.86 237.879 281.244 238.777C280.744 239.519 279.343 240.489 278.5 240.836C277.388 241.297 276.201 241.189 275.189 240.493C273.28 239.2 272.751 237.113 273.409 234.958C273.526 234.605 273.086 234.445 272.856 234.56C270.766 235.603 268.187 234.147 268.54 231.596C268.717 230.341 269.009 228.988 269.816 227.974C270.681 226.901 271.985 226.323 273.136 225.606C274.46 224.773 275.745 223.88 276.974 222.87C278.817 221.393 280.507 219.64 281.72 217.568C281.547 217.92 281.373 218.253 281.219 218.526C280.488 219.679 279.699 220.811 278.93 221.944L276.582 225.341C275.813 226.493 275.043 227.665 274.349 228.916C275.501 228.082 276.519 227.128 277.479 226.095C278.222 225.29 278.927 224.445 279.594 223.56C279.536 223.658 279.497 223.756 279.459 223.834L277.415 228.216C276.739 229.683 276.083 231.171 275.504 232.717C276.599 231.489 277.542 230.162 278.408 228.794C279.274 227.446 280.045 226.039 280.739 224.591L279.307 228.802C278.785 230.369 278.282 231.936 277.836 233.562C278.817 232.215 279.645 230.75 280.359 229.243C281.11 227.757 281.728 226.211 282.289 224.624C282.812 223.018 283.257 221.392 283.512 219.705C283.512 219.666 283.532 219.607 283.532 219.548C283.66 221.179 283.674 222.829 283.572 224.518V224.518ZM284.342 223.13C284.378 223.929 284.407 224.728 284.43 225.527L284.604 230.321C284.675 231.932 284.746 233.543 284.913 235.175C285.359 233.588 285.594 231.979 285.753 230.37C285.833 229.428 285.874 228.485 285.897 227.563C285.934 227.746 285.966 227.93 285.99 228.113C286.348 229.982 286.705 231.851 287.1 233.721C287.496 235.571 287.929 237.44 288.478 239.291C288.542 237.367 288.415 235.441 288.23 233.534C288.065 231.627 287.784 229.739 287.446 227.851C287.39 227.516 287.295 227.162 287.239 226.828C287.561 227.832 287.921 228.817 288.281 229.803C288.85 231.34 289.458 232.838 290.18 234.317C290.052 232.666 289.751 231.072 289.374 229.478C289.035 227.884 288.581 226.309 288.089 224.753C287.729 223.709 287.349 222.665 286.951 221.64C289.29 226.138 291.321 230.831 292.606 235.674C293.022 237.268 293.496 238.549 292.992 240.195C292.644 241.35 291.892 242.797 290.628 243.081C288.846 243.518 287.817 242.291 287.133 240.753C287.019 240.457 286.617 240.395 286.463 240.708C286.116 241.491 285.576 242.664 284.656 242.873C283.411 243.137 282.4 242.185 281.944 241.081C281.451 239.918 281.99 238.96 282.243 237.823C282.516 236.49 282.693 235.136 282.908 233.803C283.28 231.39 283.901 229.038 284.139 226.605C284.258 225.447 284.319 224.288 284.342 223.13ZM297.854 234.933C297.586 234.715 297.126 234.966 297.259 235.341C297.581 236.149 297.961 237.134 297.747 238.016C297.553 238.839 296.401 239.851 295.578 239.863C294.238 239.911 293.937 238.199 293.711 237.176C292.882 233.515 291.65 229.989 290.092 226.558C289.921 226.183 289.731 225.789 289.541 225.394C290.239 226.592 290.975 227.77 291.749 228.929C292.53 230.114 293.349 231.261 294.302 232.369C293.886 230.971 293.335 229.65 292.727 228.348C292.366 227.579 292.005 226.83 291.606 226.099C292.731 227.386 293.836 228.692 295.019 229.939C296.297 231.306 297.594 232.653 299.006 233.922C298.073 232.264 297.007 230.703 295.883 229.181C294.911 227.837 293.882 226.551 292.853 225.285C293.406 225.82 293.96 226.355 294.532 226.871C295.849 228.061 297.204 229.212 298.655 230.265C297.645 228.784 296.521 227.379 295.339 226.033C294.195 224.688 292.955 223.381 291.716 222.113C290.775 221.175 289.808 220.263 288.816 219.377C289.58 219.855 290.324 220.353 291.05 220.85C292.654 221.944 294.181 223.116 295.555 224.562C296.832 225.909 298.053 227.294 299.215 228.758C300.035 229.806 301.294 231.015 301.634 232.353C302.275 234.932 299.839 236.541 297.854 234.933V234.933Z" fill="#272727"/>
<path fill-rule="evenodd" clip-rule="evenodd" d="M104.216 71.1657C107.717 71.6736 110.175 74.8969 113.014 78.6538C117.187 84.1314 122.313 90.8941 132.826 89.8288C132.698 90.0498 132.57 90.2642 132.441 90.472C124.7 103.179 128.807 111.029 134.037 120.99C134.379 121.647 134.734 122.325 135.101 123.022L135.748 124.264L136.384 123.035C137.155 121.553 139.283 120.555 142.006 119.25C146.34 117.178 152.266 114.338 156.444 107.497C157.85 105.178 158.989 102.503 159.823 99.5305C168.619 113.08 188.069 112.953 195.027 110.477L196.158 110.077L195.28 109.224C193.43 107.419 191.915 102.892 190.324 98.0692C188.032 91.1405 185.475 83.4243 180.891 80.4531C185.26 79.146 190.464 74.631 194.085 68.6869C196.106 65.3935 198.499 60.2209 198.443 54.3359L198.427 53.3353L197.488 53.6196C195.38 54.2641 192.359 53.2317 188.86 52.0765C182.187 49.8285 173.181 46.7906 164.922 54.4312C165.027 46.4491 156.222 35.3517 143.556 28.0383L142.563 27.4589L142.463 28.6151C142.124 32.3972 140.523 35.8716 138.825 39.5608C136.124 45.4166 133.327 51.4675 135.712 59.0053C126.768 54.5755 116.003 61.9541 109.401 66.4935C107.137 68.0387 105.179 69.3713 104.087 69.7128L100.829 70.6982L104.216 71.1657ZM137.813 60.4006C134.452 52.5386 137.23 46.5464 140.144 40.2025C141.668 36.9037 143.23 33.5073 143.798 29.8846C156.425 37.5115 165.075 49.2153 163.193 56.3155L162.416 59.2691L164.453 57.035C172.487 48.1367 181.321 51.1138 188.415 53.4841C191.704 54.5782 194.572 55.5501 196.946 55.2615C196.775 60.3792 194.653 64.9269 192.843 67.8891C188.665 74.71 182.138 79.721 177.985 79.2846L175.782 79.7123L177.789 80.7732C183.394 81.7742 186.349 90.6911 188.944 98.545C190.44 103.072 191.747 107.048 193.461 109.361C185.969 111.361 167.555 110.675 160.195 97.2591L159.282 95.5822L158.835 97.4408C158.018 100.943 156.801 104.049 155.203 106.68C151.255 113.131 145.771 115.76 141.38 117.871C139.002 119.003 137.046 119.943 135.835 121.245C135.67 120.916 135.499 120.594 135.322 120.278C130.15 110.376 126.385 103.216 133.683 91.2502C134.087 90.6072 134.511 89.9448 134.973 89.2828L135.973 87.8027L134.23 88.098C123.465 89.9452 118.53 83.4396 114.166 77.7049C111.765 74.5411 109.46 71.5155 106.421 70.2279C107.495 69.592 108.761 68.7228 110.22 67.7379C117.416 62.7929 128.278 55.3565 136.737 61.3307L138.857 62.8243L137.813 60.4006Z" fill="#272727"/>
<path d="M158.166 80.1745C159.302 78.317 158.736 75.8749 156.921 74.6996C155.126 73.5441 152.75 74.0935 151.614 75.951C150.478 77.8085 151.044 80.2506 152.858 81.4063C154.654 82.5814 157.049 82.0125 158.166 80.1745Z" fill="#272727"/>
<path fill-rule="evenodd" clip-rule="evenodd" d="M137.584 113.868C146.403 110.602 158.035 101.759 157.731 90.2774C162.082 99.8679 173.082 107.688 185.517 104.748C185.146 90.5731 177.75 81.2905 170.618 78.5753C181.003 76.1883 185.37 70.1915 189.166 57.6444C179.681 54.6337 167.025 54.8782 160.047 63.0146C161.347 52.6277 155.698 42.0629 146.813 37.0525C145.626 42.4674 135.263 54.9775 142.381 66.9899C133.417 62.7061 122.364 64.6942 115.046 71.3338C117.968 73.5605 127.831 88.8792 140.804 85.6693C136.326 90.4071 134.045 96.8936 133.964 103.458C133.934 106.681 134.343 109.987 135.577 112.986C136.147 114.347 136.07 114.425 137.584 113.868V113.868ZM173.472 83.7302C177.229 87.9494 178.702 93.7607 179.065 99.3462C173.952 99.6362 168.711 98.2937 164.568 95.1326C162.353 93.4623 160.484 91.3037 159.018 88.9323C158.733 88.4777 158.031 86.7222 157.289 85.2613C158.746 84.6842 160.052 83.634 160.937 82.1675C161.515 81.2093 161.863 80.1705 162.001 79.1103C163.666 79.2426 165.581 79.1805 166.213 79.2449C169.007 79.5639 171.622 81.6504 173.472 83.7302V83.7302ZM152.263 82.525C149.876 80.9712 149.14 77.7609 150.623 75.3167C152.106 72.8724 155.248 72.133 157.636 73.6671C160.024 75.2209 160.74 78.4311 159.257 80.8753C157.774 83.3195 154.651 84.0591 152.263 82.525V82.525ZM164.913 62.2704C170.455 59.586 176.809 60.2895 182.488 62.2256C180.572 68.0862 176.572 73.1033 171.069 75.6701C168.442 76.9054 166.028 77.2974 163.157 77.1743C162.831 77.1518 162.41 77.1089 162.008 77.1251C161.729 74.9015 160.53 72.7879 158.524 71.5126C158.308 71.3797 158.091 71.2534 157.874 71.1335C158.241 70.2325 158.532 69.2719 158.822 68.4292C159.828 65.3715 162.132 63.6027 164.913 62.2704ZM148.188 70.7747C145.63 68.6298 144.125 66.6315 143.467 63.2253C142.245 56.7675 144.756 50.4009 148.316 45.2031C152.613 48.3656 155.985 52.9746 157.23 58.2925C157.815 60.8528 158.225 64.0997 157.545 66.6884C157.235 67.8848 156.637 69.0393 156.174 70.195C156.135 70.2733 156.097 70.3909 156.058 70.4889C153.839 70.0176 151.501 70.5871 149.754 72.0659C149.086 71.4704 148.341 70.9136 148.188 70.7747ZM122.622 72.8931C126.884 69.7063 132.212 67.9046 137.514 68.4025C140.308 68.6625 143.732 69.38 145.908 71.3251C146.729 72.0791 147.53 72.8526 148.408 73.5482C148.312 73.6653 148.216 73.802 148.139 73.939C146.887 76.0117 146.706 78.4475 147.426 80.5962C146.621 81.061 145.815 81.5455 145.028 82.0694C142.802 83.603 140.025 83.7363 137.442 83.3405C131.224 82.363 126.261 77.9368 122.622 72.8931V72.8931ZM138.796 101.298C138.45 96.1651 139.884 91.2438 142.656 87.022C143.753 85.3606 145.001 84.31 146.67 83.3809C146.9 83.2649 147.648 82.8586 148.301 82.3729C148.872 83.2427 149.635 84.0158 150.552 84.6134C152.195 85.6694 154.089 85.9806 155.852 85.6813C155.906 86.4877 155.961 87.1958 155.961 87.3137C156.048 89.7322 155.926 91.795 155.056 94.107C152.544 100.827 146.174 104.664 139.754 106.633C139.243 104.88 138.962 103.108 138.796 101.298V101.298Z" fill="#272727"/>
<path d="M172.394 89.8888L166.782 85.2416L163.977 82.918C163.646 82.6531 163.321 82.3948 163.003 82.1431L170.25 84.5138L161.902 79.5631C161.727 80.4631 161.417 81.342 160.916 82.1601C160.089 83.5237 158.917 84.4916 157.594 85.1049L163.752 92.3066L160.5 86.1552L161.016 86.6116L163.821 88.994C165.691 90.5561 167.568 92.1118 169.451 93.661C167.812 91.8399 166.185 90.0124 164.57 88.1785L162.359 85.6064C162.423 85.6593 162.493 85.7123 162.569 85.7654L166.139 88.4304L173.279 93.7996L166.831 87.5751L164.142 84.9783L166.166 86.1761L172.394 89.8888Z" fill="#272727"/>
<path d="M169.039 62.906L163.737 67.8709L161.106 70.3535C160.799 70.638 160.498 70.9224 160.203 71.207L163.54 64.2598L158.116 71.2044C158.25 71.2843 158.384 71.3446 158.518 71.4441C160.523 72.7206 161.722 74.8321 162.001 77.0514C162.141 77.0529 162.282 77.0544 162.422 77.0559L170.116 72.0575L163.714 74.3825L164.233 73.9172L166.941 71.455C168.72 69.8133 170.488 68.1583 172.242 66.4901C170.259 67.8682 168.263 69.2265 166.255 70.5651L163.453 72.4183C163.517 72.3536 163.581 72.2889 163.645 72.2242L166.739 69.0207L172.926 62.6334L165.995 68.1695L163.096 70.512L164.539 68.6443L169.039 62.906Z" fill="#272727"/>
<path d="M140.655 75.463L131.854 74.8026L140.498 76.5762L144.132 77.2993L141.797 77.3919L134.619 77.6289L141.754 78.5259L145.332 78.955C145.74 78.9984 146.148 79.0419 146.556 79.0853L139.219 81.0027L147.258 80.7162C147.322 80.6908 147.38 80.6588 147.431 80.6202C146.711 78.4806 146.892 76.0571 148.144 73.9971C148.221 73.861 148.317 73.7251 148.413 73.6087C148.197 73.4369 147.98 73.2586 147.764 73.0738L140.652 70.8665L146.592 74.3327L145.904 74.2276L142.307 73.7201C139.923 73.408 137.531 73.1154 135.133 72.8422C137.466 73.4798 139.786 74.1433 142.093 74.8327L145.305 75.7861C145.215 75.7851 145.126 75.7776 145.037 75.7637L140.655 75.463Z" fill="#272727"/>
<path d="M154.886 85.8325C153.411 85.8954 151.9 85.5258 150.543 84.6668C149.683 84.1076 148.977 83.393 148.425 82.6015L143.211 89.4798L148.493 85.0575L148.146 85.6823L146.411 88.9245C145.28 91.0993 144.161 93.2808 143.056 95.469C144.467 93.4805 145.897 91.5053 147.347 89.5434L149.367 86.8346C149.329 86.9127 149.29 86.9974 149.251 87.0887L147.399 91.1742L143.674 99.3451L148.373 91.7149L150.338 88.5145L149.583 90.7849L147.222 97.7328L150.596 91.2278L152.255 87.9652C152.448 87.6006 152.64 87.2294 152.833 86.8517L151.963 94.5815L154.886 85.8325Z" fill="#272727"/>
<path d="M154.889 67.9771L153.791 64.4287C153.046 62.063 152.282 59.7101 151.499 57.3702C151.924 59.8111 152.33 62.2453 152.717 64.6727L153.223 68.0577C153.197 67.9788 153.166 67.8999 153.128 67.8209L151.534 63.5991L148.347 55.1164L150.479 63.922L151.386 67.6059L150.302 65.4723L147.031 58.875L149.285 65.9134L150.441 69.4231C150.58 69.8176 150.712 70.2185 150.839 70.6259L145.996 64.5817L149.704 71.9696C149.717 71.9829 149.736 72.0027 149.761 72.0292C151.509 70.5545 153.848 69.9899 156.068 70.4654C156.106 70.3675 156.145 70.25 156.183 70.1719C156.338 69.8002 156.512 69.4091 156.666 69.0374L155.601 61.6775L155.078 68.6472L154.889 67.9771Z" fill="#272727"/>
<path d="M91.2928 46.4716C98.7079 43.5682 107.666 42.5519 120.422 44.3596C115.094 41.6006 103.59 37.2857 89.7738 37.6942C85.2775 43.0626 89.8793 45.7958 91.2928 46.4716V46.4716Z" fill="#272727"/>
<path fill-rule="evenodd" clip-rule="evenodd" d="M51.0162 70.6468C53.423 71.9019 56.1229 71.4549 58.8094 69.3425C60.9202 67.6953 62.6507 65.3591 63.8054 63.5273C64.1285 64.1375 64.6058 64.4746 64.9305 64.6538C66.5351 65.4709 68.8535 64.668 70.1589 63.4841C73.6722 60.2619 76.6094 57.6226 79.603 55.2581C90.1763 46.9832 101.253 42.631 123.782 46.528L126.211 46.9407L124.399 45.2206C122.434 43.3816 112.577 38.3398 99.7998 36.7212C88.1315 35.2688 70.6944 36.2746 53.8844 49.4528C53.0977 50.073 52.2916 50.7322 51.5047 51.3916C50.0459 52.6525 48.698 55.0312 48.9584 57.1691C49.0508 58.1103 49.469 58.8976 50.1559 59.4913C48.2533 61.7868 47.364 64.3654 47.7201 66.504C48.0201 68.2504 49.1633 69.6905 51.0162 70.6468V70.6468ZM58.0221 48.2737C83.9576 30.3935 111.271 39.7196 120.421 44.4614C99.7446 41.56 89.0125 45.9935 78.7077 54.0749C76.2131 56.0322 73.756 58.1859 71.0107 60.6897C69.3664 60.2641 62.6383 57.9726 58.0221 48.2737Z" fill="#272727"/>
<path d="M63.8956 44.7132C63.4224 44.9712 62.9557 45.2358 62.4952 45.507C68.3979 54.7372 72.6771 57.3883 74.0341 58.029C74.4566 57.6657 74.8727 57.309 75.2823 56.9587C70.5062 54.0674 65.3242 46.7894 63.8956 44.7132V44.7132Z" fill="#272727"/>
<path d="M71.0077 41.4427C70.5092 41.6351 70.0043 41.8339 69.493 42.0392C72.7028 49.5193 77.0174 53.155 78.5071 54.2493C78.5839 54.191 79.5247 53.4716 79.9087 53.1603C75.4765 50.2905 72.0531 43.6541 71.0077 41.4427V41.4427Z" fill="#272727"/>
<path d="M80.5854 38.7526C78.9184 39.0529 77.2319 39.4513 75.526 39.9282C76.6122 46.9189 81.5542 51.937 81.5542 51.937C82.917 50.9852 84.2797 50.0923 85.6996 49.2786C80.9248 45.7172 80.5404 40.6598 80.5854 38.7526V38.7526Z" fill="#272727"/>
<path d="M88.262 43.8108L82.6851 46.0754C82.8247 46.2851 82.977 46.495 83.1421 46.705L88.6616 44.4594C88.5092 44.2625 88.376 44.0463 88.262 43.8108V43.8108Z" fill="#272727"/>
<path d="M83.9766 47.718C84.1545 47.9021 84.3452 48.0864 84.5487 48.2708L90.0497 45.8491C89.8398 45.6907 89.6107 45.5125 89.4009 45.3151L83.9766 47.718Z" fill="#272727"/>
<path d="M82.0186 44.9233L87.9578 42.9771C87.8949 42.7424 87.8575 42.495 87.8457 42.2348L81.6957 44.2372C81.797 44.4723 81.9046 44.701 82.0186 44.9233V44.9233Z" fill="#272727"/>
<path d="M80.7349 40.8059L88.5848 39.4343C88.7388 39.1645 88.9184 38.8821 89.1236 38.587L80.6418 40.0682C80.6665 40.3011 80.6975 40.547 80.7349 40.8059Z" fill="#272727"/>
<path d="M81.2236 43.001L87.908 41.3002C87.96 41.0282 88.0375 40.75 88.1406 40.4656L81.0157 42.2786C81.0787 42.5129 81.148 42.7537 81.2236 43.001V43.001Z" fill="#272727"/>
<path d="M75.4795 48.8429L78.1458 47.2262C78.0189 47.0159 77.8984 46.7992 77.7844 46.5761L75.0223 48.231C75.1747 48.4415 75.3271 48.6454 75.4795 48.8429V48.8429Z" fill="#272727"/>
<path d="M78.3164 51.9352C78.5263 52.1137 78.7172 52.2723 78.9271 52.4312L80.8647 51.1789C80.7123 51.001 80.5598 50.8232 80.3883 50.5864L78.3164 51.9352Z" fill="#272727"/>
<path d="M77.1361 50.7849L79.4383 49.3011C79.2986 49.1038 79.159 48.8934 79.0194 48.6699L76.6213 50.231C76.7993 50.4157 76.9709 50.6004 77.1361 50.7849V50.7849Z" fill="#272727"/>
<path d="M74.2626 47.1593L77.1406 45.2304C77.0394 44.9941 76.9381 44.7579 76.8369 44.5217L73.8629 46.528C73.9897 46.7384 74.123 46.9488 74.2626 47.1593Z" fill="#272727"/>
<path d="M71.9643 43.2775L75.8744 41.6181C75.8242 41.3699 75.7677 41.1217 75.7048 40.8734L71.603 42.609C71.7171 42.8318 71.8375 43.0546 71.9643 43.2775Z" fill="#272727"/>
<path d="M73.2163 45.4965L76.4391 43.4936C76.3506 43.2445 76.2686 43.002 76.1928 42.7662L72.8167 44.8459C72.9435 45.0562 73.0768 45.273 73.2163 45.4965Z" fill="#272727"/>
<path d="M73.5227 49.1572L69.7413 52.1155C69.9065 52.3002 70.0782 52.4784 70.2562 52.6501L73.98 49.75C73.8275 49.5524 73.6751 49.3548 73.5227 49.1572Z" fill="#272727"/>
<path d="M72.4029 47.516L68.4866 50.6894C68.639 50.887 68.8043 51.0783 68.9823 51.2631L72.8026 48.1476C72.663 47.937 72.5298 47.7265 72.4029 47.516V47.516Z" fill="#272727"/>
<path d="M71.4172 45.8952L67.2897 49.2429C67.4421 49.4406 67.6009 49.6383 67.7661 49.8361L71.7977 46.5462C71.6645 46.3291 71.5312 46.1317 71.4172 45.8952Z" fill="#272727"/>
<path d="M70.7707 44.7516L66.1851 47.8368C66.3184 48.0341 66.49 48.2318 66.6424 48.4293L71.132 45.4018C71.018 45.1851 70.9039 44.9685 70.7707 44.7516Z" fill="#272727"/>
<path d="M74.5328 50.4235L70.8666 53.285C71.0446 53.4698 71.2227 53.6481 71.4007 53.8198L75.0093 50.9969C74.8569 50.7993 74.6853 50.6211 74.5328 50.4235V50.4235Z" fill="#272727"/>
<path d="M75.427 51.4725L71.933 54.3362C72.1238 54.508 72.3083 54.6799 72.4863 54.8516L75.9611 52.0074C75.783 51.8356 75.605 51.6573 75.427 51.4725V51.4725Z" fill="#272727"/>
<path d="M74.1648 56.205C74.3812 56.351 74.5912 56.497 74.7949 56.6429L78.0205 53.894C77.8423 53.7614 77.645 53.6025 77.4288 53.4173L74.1648 56.205Z" fill="#272727"/>
<path d="M70.2202 43.6261L65.4998 46.926C65.6395 47.1103 65.7855 47.3077 65.9379 47.5183L70.5622 44.3154C70.4482 44.0922 70.3342 43.8624 70.2202 43.6261V43.6261Z" fill="#272727"/>
<path d="M76.3999 52.4631L73.059 55.3287C73.2626 55.5007 73.4598 55.6596 73.6507 55.8054L76.9532 52.9786C76.7751 52.8199 76.5907 52.648 76.3999 52.4631V52.4631Z" fill="#272727"/>
<path d="M64.8899 46.0903L69.9724 43.1301C69.8711 42.8942 69.7699 42.6648 69.6686 42.4419L64.4519 45.479C64.5788 45.663 64.7248 45.8668 64.8899 46.0903V46.0903Z" fill="#272727"/>
<path d="M66.8388 51.5883L62.5573 55.2087C62.7353 55.3936 62.9069 55.5718 63.0722 55.7435L67.3154 52.1618C67.1629 51.9772 67.004 51.786 66.8388 51.5883V51.5883Z" fill="#272727"/>
<path d="M63.3405 46.8168L58.8696 49.9234C58.9836 50.1597 59.1169 50.357 59.2501 50.5739L63.7593 47.4481C63.6325 47.2378 63.4929 47.0274 63.3405 46.8168V46.8168Z" fill="#272727"/>
<path d="M69.6392 54.6933L65.9511 58.243C66.1611 58.4021 66.3712 58.5416 66.5813 58.6812L70.1734 55.2089C69.9953 55.037 69.8173 54.8652 69.6392 54.6933Z" fill="#272727"/>
<path d="M65.9082 50.3993L61.3979 53.8001C61.5503 53.9976 61.7027 54.1952 61.8552 54.3732L66.3654 50.9919C66.213 50.7944 66.0606 50.5968 65.9082 50.3993Z" fill="#272727"/>
<path d="M72.8421 57.3708L69.7305 60.3369C70.0364 60.4447 70.2977 60.5389 70.5144 60.6196L73.5106 57.7895C73.3196 57.6699 73.0968 57.5303 72.8421 57.3708V57.3708Z" fill="#272727"/>
<path d="M67.7336 52.655L63.6051 56.2775C63.7959 56.4625 63.9803 56.6344 64.1584 56.7932L68.2294 53.2092C68.0641 53.0245 67.8989 52.8397 67.7336 52.655Z" fill="#272727"/>
<path d="M68.5918 53.6033L64.7309 57.2887C64.9217 57.4672 65.1126 57.6065 65.3226 57.7657L69.0876 54.1381C68.9223 53.9664 68.757 53.7881 68.5918 53.6033Z" fill="#272727"/>
<path d="M70.6299 55.6261L67.0193 58.96C67.2484 59.1062 67.4713 59.2392 67.6878 59.3592L71.2024 56.1223C71.0243 55.9766 70.8334 55.8112 70.6299 55.6261Z" fill="#272727"/>
<path d="M72.328 57.0135C72.1371 56.8677 71.9334 56.7152 71.717 56.556L68.4514 59.7567C68.7061 59.8901 68.9482 60.0038 69.1776 60.0977L72.328 57.0135Z" fill="#272727"/>
<path d="M65.3578 49.6841C65.2182 49.4867 65.0721 49.2827 64.9198 49.0721L60.3145 52.2948C60.4477 52.5117 60.6001 52.7288 60.7334 52.9261L65.3578 49.6841Z" fill="#272727"/>
<path d="M63.0746 46.3991C62.9223 46.182 62.789 45.9848 62.6558 45.768L58.186 48.6188C58.3 48.8354 58.4141 49.0521 58.5281 49.2883L63.0746 46.3991Z" fill="#272727"/>
<path d="M64.5572 48.5741C64.4048 48.3766 64.2716 48.1597 64.1192 47.9622L59.5716 51.1267C59.7048 51.3436 59.8189 51.5603 59.9521 51.7771L64.5572 48.5741Z" fill="#272727"/>
<path fill-rule="evenodd" clip-rule="evenodd" d="M195.461 101.083C201.277 112.369 209.295 123.087 219.853 130.108C230.258 137.029 242.497 139.307 254.636 137.278C260.495 136.31 266.147 134.362 271.609 132.001C277.32 129.506 282.881 126.265 288.934 124.614C291.558 123.912 294.525 123.546 297.008 124.938C299.089 126.091 301.359 128.147 301.369 130.75C301.363 132.708 298.843 136.425 296.513 135.113C294.66 134.059 295.508 132.324 297.25 132.3C295.937 130.253 293.895 128.65 291.423 129.588C289.047 130.488 287.583 133.118 287.689 135.663C287.954 141.969 295.007 144.222 299.952 142.15C305.356 139.887 309.031 134.085 308.918 128.094C308.823 122.397 305.458 116.378 301.395 112.585C291.991 103.871 277.325 106.349 265.99 108.209C241.96 112.152 214.402 118.433 194.991 98.5737C194.47 98.0341 193.949 97.4946 193.428 96.9551C194.093 98.3311 194.758 99.7266 195.461 101.083V101.083ZM222.421 112.767C234.834 114.381 247.337 112.178 259.554 110.032C265.892 108.932 272.287 107.754 278.718 107.339C284.652 106.979 290.908 107.209 296.352 109.938C306.438 114.977 313.005 130.459 303.445 139.068C305.351 135.737 307.811 127.341 297.135 121.376C292.169 118.613 285.733 120.593 280.599 122.017C273.57 123.973 266.691 126.439 259.643 128.258C247.461 131.402 235.367 131.474 223.945 125.504C213.592 120.07 205.356 111.387 197.963 102.299C204.966 108.095 213.412 111.593 222.421 112.767V112.767Z" fill="#272727"/>
<path d="M252.453 111.188C252.792 112.619 253.668 113.939 254.985 114.793C257.658 116.503 261.183 115.699 262.838 112.978C263.531 111.831 263.785 110.524 263.655 109.271C262.289 109.504 260.923 109.738 259.557 109.971C257.202 110.377 254.827 110.802 252.453 111.188V111.188Z" fill="#272727"/>
<path d="M231.942 117.807C234.615 119.516 238.12 118.712 239.795 115.994C240.373 115.023 240.644 113.951 240.648 112.876C236.858 113.247 233.068 113.422 229.279 113.305C229.426 115.085 230.358 116.775 231.942 117.807V117.807Z" fill="#272727"/>
<path d="M243.501 116.774C246.174 118.483 249.698 117.679 251.354 114.959C252.047 113.812 252.3 112.524 252.171 111.291C248.437 111.897 244.684 112.425 240.912 112.797C241.174 114.384 242.069 115.84 243.501 116.774Z" fill="#272727"/>
<path d="M217.673 111.961C217.57 114.012 218.519 116.075 220.352 117.267C223.025 118.976 226.549 118.152 228.205 115.452C228.609 114.772 228.86 114.071 228.978 113.349C226.796 113.268 224.615 113.108 222.435 112.812C220.828 112.6 219.241 112.31 217.673 111.961V111.961Z" fill="#272727"/>
<path d="M266.396 112.775C269.069 114.484 272.575 113.68 274.249 110.961C274.885 109.912 275.157 108.722 275.084 107.568C271.332 107.959 267.598 108.546 263.864 109.171C264.203 110.602 265.079 111.921 266.396 112.775V112.775Z" fill="#272727"/>
<path d="M286.789 107.214C286.36 109.519 287.308 111.955 289.37 113.288C292.043 115.018 295.568 114.193 297.223 111.471C297.416 111.16 297.551 110.848 297.686 110.537C297.247 110.258 296.807 109.999 296.349 109.779C293.35 108.261 290.099 107.522 286.789 107.214Z" fill="#272727"/>
<path d="M275.253 107.493C275.458 109.156 276.371 110.728 277.879 111.7C280.552 113.408 284.076 112.604 285.731 109.887C286.232 109.053 286.503 108.138 286.583 107.24C283.962 106.998 281.302 107.048 278.718 107.197C277.569 107.283 276.402 107.388 275.253 107.493V107.493Z" fill="#272727"/>
<path d="M209.348 113.637C212.003 115.328 215.489 114.543 217.163 111.86C213.53 110.981 210.013 109.692 206.689 108.014C206.452 110.183 207.42 112.385 209.348 113.637Z" fill="#272727"/>
<path d="M299.429 118.871C301.358 120.108 303.713 120.034 305.497 118.876C303.633 115.501 300.925 112.529 297.774 110.573C297.716 110.651 297.658 110.729 297.6 110.826C295.944 113.537 296.755 117.156 299.429 118.871Z" fill="#272727"/>
<path d="M289.944 117.993C290.618 116.878 290.278 115.401 289.19 114.704C288.101 114.007 286.664 114.328 285.99 115.443C285.297 116.577 285.636 118.054 286.725 118.751C287.833 119.449 289.251 119.107 289.944 117.993V117.993Z" fill="#272727"/>
<path d="M282.348 118.616C283.022 117.482 282.701 116.025 281.593 115.308C280.505 114.61 279.068 114.952 278.394 116.066C277.72 117.181 278.04 118.658 279.148 119.355C280.237 120.072 281.674 119.731 282.348 118.616V118.616Z" fill="#272727"/>
<path d="M275.358 119.915C276.032 118.781 275.692 117.304 274.604 116.607C273.515 115.909 272.078 116.251 271.404 117.365C270.711 118.48 271.05 119.957 272.139 120.654C273.228 121.351 274.665 121.03 275.358 119.915V119.915Z" fill="#272727"/>
<path d="M267.987 121.112C268.661 119.998 268.321 118.521 267.233 117.804C266.144 117.107 264.707 117.448 264.033 118.562C263.34 119.677 263.679 121.154 264.768 121.851C265.857 122.568 267.294 122.227 267.987 121.112V121.112Z" fill="#272727"/>
<path d="M259.814 122.678C260.488 121.564 260.149 120.087 259.06 119.389C257.971 118.692 256.534 119.014 255.86 120.128C255.167 121.262 255.506 122.739 256.595 123.437C257.684 124.134 259.121 123.793 259.814 122.678V122.678Z" fill="#272727"/>
<path d="M251.35 124.222C252.024 123.108 251.704 121.631 250.615 120.934C249.507 120.236 248.089 120.558 247.396 121.692C246.722 122.807 247.061 124.284 248.15 124.981C249.239 125.678 250.676 125.357 251.35 124.222Z" fill="#272727"/>
<path d="M242.72 124.921C243.394 123.787 243.054 122.31 241.965 121.613C240.877 120.915 239.44 121.257 238.746 122.371C238.072 123.485 238.412 124.963 239.501 125.66C240.59 126.357 242.027 126.035 242.72 124.921V124.921Z" fill="#272727"/>
<path d="M234.475 124.675C235.168 123.561 234.829 122.083 233.74 121.366C232.632 120.669 231.214 121.01 230.521 122.125C229.847 123.239 230.186 124.716 231.275 125.414C232.364 126.131 233.801 125.789 234.475 124.675V124.675Z" fill="#272727"/>
<path d="M225.837 122.969C226.511 121.855 226.171 120.378 225.083 119.68C223.994 118.983 222.557 119.305 221.883 120.419C221.209 121.554 221.529 123.011 222.637 123.728C223.726 124.425 225.163 124.084 225.837 122.969V122.969Z" fill="#272727"/>
<path fill-rule="evenodd" clip-rule="evenodd" d="M219.571 108.471C236.553 111.829 244.962 109.473 256.589 106.224C261.991 104.724 268.101 103.014 276.182 101.536C289.739 99.0483 301.022 101.025 307.929 107.078C312.03 110.677 314.233 115.514 314.1 120.683L313.985 126.244L315.554 120.911C315.709 120.403 319.254 107.978 313.448 99.2524C310.402 94.7023 305.36 92.0542 298.454 91.3681C298.019 89.8956 296.483 85.8872 292.088 83.9694C286.241 81.4123 277.909 83.6515 267.302 90.63C266.076 91.2461 236.497 105.856 219.653 106.984L213.949 107.365L219.571 108.471ZM267.987 91.948L268.063 91.9095C278.095 85.3177 286.197 83.057 291.509 85.3352C296.114 87.3333 297.15 92.1598 297.15 92.2186L297.262 92.7679L297.817 92.8118C304.532 93.3788 309.365 95.8292 312.22 100.084C315.533 105.028 315.549 111.452 315.036 115.756C314.092 112.046 311.999 108.66 308.889 105.93C301.64 99.5816 289.917 97.4831 275.919 100.065C267.781 101.542 261.632 103.272 256.211 104.772C245.58 107.755 238.186 109.807 224.779 107.85C242.299 104.75 266.856 92.5258 267.987 91.948V91.948Z" fill="#272727"/>
<path fill-rule="evenodd" clip-rule="evenodd" d="M256.194 104.726C261.634 103.228 267.782 101.501 275.901 100.026C289.917 97.4472 301.639 99.5429 308.869 105.883C311.979 108.609 314.091 111.991 315.035 115.695C315.528 111.397 315.531 104.982 312.219 100.064C309.364 95.7955 304.512 93.3483 297.817 92.8018L297.262 92.7579L297.149 92.1898C297.149 92.1506 296.114 87.311 291.509 85.3157C286.198 83.0405 278.096 85.2982 268.065 91.9007L267.988 91.9391C266.857 92.4966 242.302 104.705 224.782 107.801C238.17 109.774 245.583 107.706 256.194 104.726V104.726ZM255.662 98.1307L257.905 96.9765C259.4 96.2071 260.896 95.4572 262.429 94.7467C265.457 93.3255 268.562 92.0223 271.704 90.8367C274.865 89.6904 278.084 88.6424 281.378 87.9276C283.024 87.5701 284.709 87.2912 286.394 87.1688C288.078 87.0659 289.819 87.0613 291.444 87.5838C289.761 87.3933 288.114 87.5943 286.487 87.8932C284.859 88.1922 283.25 88.6086 281.661 89.0643C278.481 89.9953 275.339 91.0831 272.216 92.2493C269.093 93.3959 265.988 94.6209 262.865 95.8262L258.19 97.6439L255.814 98.5036C255.029 98.7902 254.243 99.0964 253.42 99.2653C254.186 98.9394 254.915 98.5154 255.662 98.1307V98.1307ZM247.285 102.44L251.327 101.203C252.687 100.804 253.99 100.385 255.312 99.8879C260.542 97.9575 265.603 95.3999 271.044 93.6669C273.764 92.8102 276.598 92.2087 279.431 91.9397C282.264 91.6511 285.115 91.5778 287.966 91.7979C290.797 91.9983 293.627 92.4724 296.361 93.2782C299.094 94.1231 301.75 95.2412 304.079 96.8845C302.837 96.2088 301.538 95.6305 300.219 95.1498C298.901 94.6691 297.563 94.286 296.186 93.9808C293.471 93.3707 290.698 93.0535 287.904 92.9513C285.13 92.8883 282.336 93.0012 279.579 93.3491C276.822 93.6579 274.141 94.2216 271.479 95.0983C266.172 96.7542 261.093 99.2531 255.69 101.006C252.97 101.902 250.213 102.484 247.474 103.145C244.716 103.747 241.978 104.389 239.22 104.932C241.902 104.056 244.603 103.277 247.285 102.44V102.44ZM255.188 102.508C261.931 100.375 268.637 97.8902 275.702 96.6601C279.225 96.045 282.862 95.7633 286.42 95.8722C289.998 95.9616 293.595 96.2858 297.093 97.2156C300.592 98.1062 303.974 99.5825 306.894 101.739C309.814 103.896 312.292 106.616 314.214 109.684C312.023 106.829 309.468 104.245 306.49 102.342C303.55 100.4 300.244 99.1006 296.84 98.3477C293.418 97.5947 289.917 97.2908 286.416 97.2803C282.876 97.2303 279.43 97.5136 275.965 98.1292C269.053 99.3215 262.366 101.709 255.528 103.625C253.804 104.099 252.081 104.573 250.357 104.969C248.614 105.365 246.872 105.722 245.129 106.039C241.625 106.655 238.141 107.25 234.656 107.925C241.494 105.969 248.483 104.738 255.188 102.508V102.508Z" fill="#272727"/>
<path d="M220.182 43.8138C220.683 42.9926 220.438 41.9094 219.635 41.3915C218.814 40.8733 217.76 41.1198 217.26 41.941C216.759 42.7622 217.004 43.865 217.825 44.3831C218.628 44.9011 219.682 44.6547 220.182 43.8138V43.8138Z" fill="#272727"/>
<path d="M218.66 37.4992C219.161 36.678 218.916 35.5948 218.113 35.0769C217.311 34.5589 216.257 34.8053 215.756 35.6265C215.256 36.4477 215.501 37.5309 216.303 38.0489C217.105 38.5668 218.159 38.3204 218.66 37.4992Z" fill="#272727"/>
<path d="M215.737 32.3372C216.237 31.516 215.973 30.4327 215.171 29.9147C214.369 29.3968 213.315 29.6432 212.814 30.4644C212.313 31.2856 212.559 32.3688 213.361 32.8867C214.163 33.4047 215.217 33.1583 215.737 32.3372V32.3372Z" fill="#272727"/>
<path d="M212.635 28.8508C213.135 28.0296 212.89 26.9464 212.088 26.4284C211.286 25.9105 210.213 26.1567 209.731 26.9781C209.23 27.7993 209.475 28.9021 210.278 29.4201C211.08 29.9381 212.134 29.6917 212.635 28.8508Z" fill="#272727"/>
<path d="M208.264 26.0461C208.765 25.2249 208.52 24.1417 207.718 23.6237C206.915 23.1058 205.862 23.3522 205.361 24.1734C204.86 24.9946 205.105 26.0778 205.908 26.5957C206.71 27.1137 207.764 26.8673 208.264 26.0461Z" fill="#272727"/>
<path d="M204.173 25.1927C204.674 24.3715 204.429 23.2883 203.607 22.7702C202.805 22.2523 201.751 22.4987 201.251 23.3199C200.75 24.1411 200.995 25.2242 201.797 25.7422C202.6 26.2601 203.673 26.0139 204.173 25.1927V25.1927Z" fill="#272727"/>
<path d="M199.126 24.9289C199.626 24.1077 199.381 23.0245 198.579 22.5065C197.777 21.9886 196.723 22.235 196.222 23.0562C195.722 23.8774 195.967 24.9606 196.769 25.4785C197.571 25.9965 198.625 25.7501 199.126 24.9289Z" fill="#272727"/>
<path d="M193.819 26.5521C194.319 25.7309 194.055 24.6476 193.253 24.1296C192.451 23.6116 191.397 23.8581 190.896 24.6793C190.395 25.5005 190.641 26.6033 191.443 27.1016C192.245 27.6392 193.299 27.3731 193.819 26.5521V26.5521Z" fill="#272727"/>
<path d="M190.589 30.4347C191.089 29.6135 190.844 28.5304 190.042 28.0124C189.24 27.4944 188.186 27.7409 187.685 28.5621C187.185 29.3833 187.43 30.4664 188.232 30.9844C189.034 31.5024 190.088 31.256 190.589 30.4347Z" fill="#272727"/>
<path d="M189.382 35.2942C189.882 34.473 189.637 33.3899 188.835 32.8719C188.033 32.3539 186.96 32.6002 186.459 33.4214C185.959 34.2426 186.223 35.3456 187.025 35.8636C187.827 36.3815 188.881 36.1154 189.382 35.2942V35.2942Z" fill="#272727"/>
<path d="M190.297 40.9368C190.798 40.1156 190.553 39.0324 189.75 38.5144C188.948 37.9964 187.894 38.2429 187.375 39.0639C186.893 39.8853 187.138 40.9881 187.94 41.5061C188.743 42.0241 189.796 41.7776 190.297 40.9368V40.9368Z" fill="#272727"/>
<path d="M194.949 44.2356C195.449 43.4145 195.204 42.3313 194.402 41.8133C193.6 41.2954 192.527 41.5416 192.026 42.3628C191.526 43.184 191.771 44.2672 192.592 44.7853C193.394 45.3033 194.448 45.0568 194.949 44.2356V44.2356Z" fill="#272727"/>
<path fill-rule="evenodd" clip-rule="evenodd" d="M145.664 151.093C162.84 156.511 167.954 139.449 167.954 139.449C169.589 142.904 172.816 150.954 181.512 155.433C185.354 157.394 189.084 158.232 192.455 158.064C199.457 159.737 206.392 163.965 210.297 169.957C214.391 176.264 214.471 186.43 206.99 190.121C203.71 191.744 199.595 191.434 197.405 188.131C196.433 186.668 195.866 184.52 196.581 182.815C197.43 180.778 200.576 179.114 202.273 181.213C202.978 182.064 203.222 183.443 202.243 184.201C200.746 185.368 200.619 183.165 199.22 183.664C199.148 187.93 207.045 185.304 204.23 180.188C202.079 176.315 196.83 177.273 194.483 180.32C192.348 183.113 192.641 186.969 194.277 189.913C194.962 191.118 195.801 192.109 196.775 192.904C196.737 192.916 196.698 192.942 196.66 192.981C196.045 193.507 195.966 194.45 196.48 195.103C196.671 195.321 196.9 195.461 197.13 195.561C196.706 196.108 196.685 196.914 197.142 197.488C197.295 197.666 197.486 197.806 197.696 197.906C197.273 198.453 197.289 199.22 197.728 199.774C197.976 200.071 198.281 200.231 198.626 200.293C198.318 200.821 198.353 201.51 198.754 202.024C199.021 202.341 199.384 202.521 199.747 202.564C199.554 203.054 199.61 203.644 199.972 204.099C200.258 204.436 200.659 204.636 201.061 204.64C201.002 205.052 201.097 205.485 201.383 205.842C201.783 206.317 202.395 206.499 202.932 206.327C202.815 206.798 202.909 207.31 203.233 207.706C203.653 208.24 204.361 208.384 204.936 208.134C204.896 208.526 205.01 208.921 205.277 209.257C205.772 209.871 206.653 209.957 207.267 209.51C207.247 209.864 207.36 210.239 207.608 210.536C208.123 211.189 209.042 211.276 209.675 210.75C209.848 210.594 209.983 210.399 210.079 210.183C210.059 210.557 210.153 210.951 210.42 211.268C210.935 211.901 211.873 211.988 212.487 211.463C212.564 211.404 212.622 211.326 212.68 211.268C212.736 211.465 212.831 211.682 212.965 211.86C213.213 212.157 213.557 212.337 213.882 212.379C212.547 221.923 212.571 231.42 218.247 239.944C224.323 249.119 235.415 252.774 244.952 246.8C249.136 244.202 252.023 239.921 252.308 234.811C252.595 229.524 249.841 223.13 244.138 222.432C240.75 222.01 236.166 224.172 236.86 228.366C237.104 229.863 238.228 231.445 239.895 231.204C240.527 231.131 241.198 230.763 240.53 230.128C239.515 230.336 239.632 229.59 239.136 229.192C238.891 227.971 239.699 226.916 240.829 226.769C242.803 226.392 244.617 227.607 245.089 229.578C246.205 233.402 244.258 237.337 240.73 238.781C234.899 241.719 229.358 238.309 226.218 232.797C221.955 225.249 223.365 216.315 224.141 208.063C224.937 199.458 225.638 190.498 223.064 182.08C219.865 171.573 211.071 161.922 200.975 158.059C199.866 157.637 198.738 157.273 197.59 156.968C201.559 155.39 204.672 152.153 206.335 147.626C209.872 137.943 198.837 134.505 196.694 139.304C194.765 143.613 198.238 146.868 201.731 144.597C198.542 153.044 184.812 153.397 180.164 146.692C179.135 145.208 180.837 145.852 180.837 145.852C186.052 149.397 190.979 142.027 190.979 142.027C187.396 142.822 186.466 134.89 177.552 132.532C176.213 132.167 177.65 131.786 177.65 131.786C183.386 134.254 190.567 128.516 190.567 128.516C185.976 127.198 179.68 115.346 166.67 118.026C163.106 118.762 161.859 113.855 161.859 113.855C156.305 119.844 159.963 124.928 160.623 127.726C165.624 148.651 145.751 148.164 144.356 142.077C143.922 140.264 146.277 140.048 146.041 142.091C151.962 140.805 146.541 130.279 140.585 136.185C134.629 142.091 142.853 150.223 145.664 151.093ZM213.566 204.099L212.632 208.436C212.339 208.394 212.032 208.339 211.714 208.271L212.859 203.896C213.101 203.977 213.337 204.044 213.566 204.099V204.099ZM210.987 208.107C210.579 207.999 210.164 207.871 209.743 207.723L211.367 203.392C211.635 203.499 211.896 203.599 212.151 203.693L210.987 208.107ZM209.055 207.461C208.577 207.261 208.099 207.04 207.621 206.761L209.742 202.591C210.061 202.777 210.373 202.944 210.679 203.091L209.055 207.461ZM202.888 202.532L206.305 199.809C206.496 200.007 206.668 200.225 206.859 200.403L203.86 203.759C203.517 203.376 203.193 202.967 202.888 202.532V202.532ZM204.172 196.605L200.758 198.404C200.606 197.996 200.467 197.576 200.341 197.142L203.83 195.894C203.944 196.131 204.058 196.368 204.172 196.605ZM204.515 197.257C204.654 197.507 204.794 197.744 204.933 197.968L201.517 200.2C201.353 199.858 201.188 199.496 201.023 199.114L204.515 197.257ZM205.352 198.581C205.505 198.799 205.676 199.017 205.829 199.215L202.469 201.899C202.266 201.57 202.069 201.227 201.879 200.871L205.352 198.581ZM207.393 200.899C207.597 201.072 207.807 201.244 208.023 201.416L205.367 205.208C205.024 204.916 204.687 204.605 204.356 204.275L207.393 200.899ZM208.596 201.873C208.761 201.993 208.927 202.106 209.093 202.212L206.972 206.382C206.628 206.169 206.284 205.936 205.94 205.684L208.596 201.873ZM203.507 195.164C203.507 195.164 203.507 195.17 203.507 195.184L200.114 196.413C199.963 195.802 199.812 195.171 199.68 194.521C200.904 194.945 202.186 195.172 203.507 195.164ZM214.45 208.609C214.125 208.586 213.742 208.563 213.34 208.521L214.274 204.223C214.6 204.285 214.925 204.327 215.212 204.368C214.958 205.782 214.685 207.195 214.45 208.609V208.609ZM215.485 202.916C212.71 202.636 207.698 201.256 205.058 195.059C205.959 194.949 206.859 194.741 207.722 194.414C207.971 194.337 208.201 194.241 208.431 194.145C211.195 197.806 214.159 199.011 216.11 199.402C215.902 200.58 215.693 201.751 215.485 202.916V202.916ZM217.162 183.386C217.495 186.614 217.369 189.857 217.032 193.079C216.057 192.795 214.776 192.155 213.249 190.785C215.286 188.58 216.541 185.78 217.087 182.776C217.125 182.993 217.143 183.189 217.162 183.386V183.386Z" fill="#272727"/>
<path d="M214.98 201.486C215.364 201.155 215.424 200.566 215.1 200.151C214.776 199.755 214.183 199.691 213.799 200.021C213.414 200.372 213.355 200.961 213.698 201.357C214.022 201.753 214.596 201.817 214.98 201.486Z" fill="#272727"/>
<path d="M212.44 200.705C212.824 200.374 212.883 199.785 212.559 199.389C212.235 198.974 211.661 198.93 211.258 199.26C210.874 199.591 210.814 200.18 211.138 200.596C211.482 200.992 212.056 201.036 212.44 200.705Z" fill="#272727"/>
<path d="M210.248 199.035C210.632 198.704 210.672 198.095 210.348 197.699C210.024 197.303 209.45 197.239 209.066 197.57C208.663 197.901 208.622 198.51 208.946 198.906C209.27 199.302 209.845 199.366 210.248 199.035Z" fill="#272727"/>
<path d="M208.403 196.916C208.787 196.585 208.846 195.976 208.522 195.58C208.198 195.184 207.605 195.12 207.221 195.451C206.837 195.782 206.777 196.391 207.101 196.787C207.444 197.183 208.019 197.247 208.403 196.916Z" fill="#272727"/>
<path d="M207.198 217.817C205.189 217.462 203.268 219.325 203.221 221.798C203.173 224.29 204.986 226.173 206.996 226.018C209.026 225.843 210.545 224.054 210.591 222.013C210.617 219.953 209.207 218.172 207.198 217.817Z" fill="#272727"/>
<path d="M207.156 227.802C205.337 227.96 204.028 229.888 204.46 232.071C204.667 233.153 205.258 234.042 206.021 234.58C206.785 235.118 207.685 235.265 208.566 235C210.291 234.449 211.274 232.595 210.936 230.786C210.579 228.996 208.975 227.625 207.156 227.802V227.802Z" fill="#272727"/>
<path d="M209.296 237.27C207.782 237.803 207.086 239.778 207.96 241.573C208.397 242.46 209.103 243.076 209.868 243.339C210.652 243.622 211.456 243.533 212.128 243.069C213.471 242.161 213.861 240.36 213.177 238.92C212.473 237.5 210.81 236.717 209.296 237.27Z" fill="#272727"/>
<path d="M213.36 244.874C212.227 245.725 212.125 247.529 213.289 248.797C214.452 250.085 216.232 250.103 217.117 248.995C218.02 247.906 217.892 246.276 216.977 245.266C216.042 244.255 214.473 244.023 213.36 244.874Z" fill="#272727"/>
<path d="M219.054 250.559C218.342 251.532 218.7 253.026 219.904 253.765C221.107 254.503 222.544 254.126 223.065 253.033C223.567 251.94 223.112 250.621 222.099 250.003C221.087 249.384 219.746 249.585 219.054 250.559V250.559Z" fill="#272727"/>
<path d="M225.372 254.103C225.005 255.021 225.556 256.125 226.608 256.509C227.679 256.873 228.752 256.355 229.005 255.377C229.257 254.419 228.686 253.413 227.749 253.089C226.793 252.745 225.739 253.185 225.372 254.103Z" fill="#272727"/>
<path d="M230.837 255.847C230.642 256.61 231.195 257.4 232.037 257.566C232.878 257.732 233.665 257.23 233.783 256.447C233.9 255.684 233.348 254.952 232.563 254.787C231.779 254.622 231.012 255.084 230.837 255.847V255.847Z" fill="#272727"/>
<path d="M16.8642 44.9852C17.8271 43.3869 17.4898 41.3235 16.0966 40.1122C14.7033 38.9204 12.6167 38.8982 11.2912 40.1985C9.94648 41.4985 10.1295 43.8741 11.809 45.3435C13.4885 46.7933 15.8822 46.5833 16.8642 44.9852V44.9852Z" fill="#272727"/>
<path d="M10.2333 39.0271C11.4243 37.8822 11.5077 35.9604 10.5552 34.6358C10.079 33.9637 9.4104 33.5446 8.66443 33.3601C7.91845 33.1756 7.09506 33.2257 6.38521 33.6498C5.65629 34.0541 5.19426 34.7751 5.05726 35.6173C4.93941 36.4597 5.16565 37.443 5.75625 38.2537C6.95646 39.9145 9.02315 40.1718 10.2333 39.0271V39.0271Z" fill="#272727"/>
<path d="M3.37615 31.6396C4.04495 32 4.77238 32.0273 5.44355 31.7205C6.11472 31.4136 6.57621 30.8494 6.84646 30.2243C7.11678 29.5796 7.17665 28.8934 6.98757 28.2241C6.81764 27.5551 6.39834 27.0208 5.84454 26.6225C5.30988 26.2243 4.62151 25.9815 3.89367 26.0719C3.16591 26.1427 2.55182 26.5483 2.16656 27.2114C1.78131 27.8745 1.66324 28.776 1.90892 29.6813C2.15459 30.5866 2.72649 31.2795 3.37615 31.6396V31.6396Z" fill="#272727"/>
<path d="M2.2044 23.2227C2.58541 23.7566 3.1587 24.0571 3.79048 24.0638C4.4414 24.0707 4.99757 23.8019 5.43929 23.4141C5.88101 23.0262 6.18914 22.5193 6.26788 21.9117C6.46343 20.7559 5.79789 19.4732 4.5933 19.0287C4.00051 18.8261 3.36832 18.9372 2.83095 19.3044C2.29357 19.6715 1.87002 20.3343 1.75237 21.118C1.6155 21.9212 1.80424 22.6886 2.2044 23.2227Z" fill="#272727"/>
<path d="M5.40622 16.8772C6.40017 17.3194 7.5312 16.8998 8.0705 15.9833C8.60987 15.0472 8.40368 13.8089 7.54449 13.1523C6.68531 12.4957 5.36326 12.7956 4.70826 13.9463C4.05332 15.0773 4.4314 16.4352 5.40622 16.8772V16.8772Z" fill="#272727"/>
<path d="M8.95199 11.2461C9.63907 11.842 10.6541 11.735 11.2883 11.0551C11.9033 10.375 11.9453 9.31608 11.335 8.6622C10.7247 8.00832 9.63343 8.03597 8.94154 8.79375C8.24966 9.55152 8.28398 10.6701 8.95199 11.2461Z" fill="#272727"/>
<path d="M12.5838 7.44663C13.0414 7.98112 13.8645 8.00946 14.4213 7.54457C14.9782 7.06007 15.096 6.23743 14.6577 5.66391C14.2385 5.11021 13.3964 5.06205 12.8011 5.56576C12.2059 6.06948 12.1262 6.93175 12.5838 7.44663Z" fill="#272727"/>
<path fill-rule="evenodd" clip-rule="evenodd" d="M19.4043 40.0975C29.442 48.0138 43.8642 44.3403 55.011 41.5587C78.6453 35.6548 105.619 27.1173 126.508 45.3253C127.068 45.826 127.634 46.3202 128.206 46.808C127.426 45.4898 126.666 44.1717 125.847 42.8728C121.909 36.4967 117.184 30.3683 111.691 25.173C110.893 23.6393 110.459 21.8738 110.618 20.2309C110.856 17.9231 112.778 15.5124 115.263 16.1406C116.353 16.424 117.268 17.3323 117.168 18.5451C117.128 19.0733 116.839 19.6972 116.36 19.9671C115.746 20.2554 114.695 20.0311 114.678 19.1892C114.68 18.8565 114.891 18.4668 115.274 18.4897C115.848 18.5142 115.444 19.0784 115.884 19.2192C116.71 18.2475 114.322 17.2678 114.028 19.0466C113.794 20.3952 115.226 21.2101 116.375 20.9655C117.409 20.7395 118.083 19.7666 118.258 18.7502C118.551 17.0302 117.447 15.5722 115.918 14.9718C112.669 13.7498 109.616 16.7184 109.356 19.9069C109.256 21.1588 109.481 22.3939 109.937 23.5527C106.674 20.6668 103.143 18.0917 99.3619 15.9842C98.7716 15.157 98.3155 14.2331 98.0892 13.2916C97.523 11.0356 98.5093 8.08832 101.055 7.8166C102.166 7.68913 103.331 8.2081 103.633 9.38518C103.784 9.91499 103.725 10.58 103.34 11.0074C102.899 11.5125 101.826 11.6599 101.542 10.8744C101.409 10.5601 101.487 10.1301 101.832 10.0156C102.388 9.84426 102.213 10.4887 102.672 10.4927C103.117 9.26329 100.553 9.18251 100.872 10.9665C101.097 12.3191 102.723 12.5876 103.72 11.9502C104.621 11.3707 104.912 10.2183 104.725 9.19882C104.424 7.47367 102.897 6.48179 101.251 6.48721C97.807 6.45758 95.9564 10.337 96.7875 13.437C96.9387 13.9668 97.1283 14.4578 97.3754 14.9297C93.4021 12.9576 89.2543 11.6104 85.0281 10.8303C84.4937 10.4146 84.0362 9.92129 83.6362 9.38933C82.2841 7.51811 82.1228 4.40435 84.3661 3.15129C85.3439 2.61161 86.6259 2.64221 87.3305 3.62701C87.6543 4.06044 87.8625 4.70819 87.6693 5.23504C87.4374 5.87901 86.4978 6.4386 85.945 5.82703C85.7163 5.57059 85.6221 5.13914 85.9099 4.90672C86.3514 4.51902 86.4255 5.20477 86.8472 5.01265C86.8135 3.72043 84.4183 4.63941 85.3505 6.17426C86.0737 7.31581 87.6824 6.93815 88.3556 5.96521C88.971 5.08965 88.8221 3.91388 88.2702 3.02828C87.3569 1.55232 85.5784 1.22383 84.0644 1.85677C80.8642 3.16031 80.5812 7.46431 82.5049 10.0256C82.632 10.1833 82.759 10.3409 82.886 10.4986C78.9841 9.9757 75.0423 9.92222 71.0988 10.3581C70.0476 9.9967 69.0736 9.44023 68.2916 8.70924C66.6132 7.12883 65.8584 4.10784 67.8352 2.44142C68.6988 1.72459 69.9434 1.5004 70.8399 2.33025C71.2405 2.68604 71.5638 3.27606 71.4661 3.84288C71.3489 4.52699 70.5427 5.24431 69.8747 4.7492C69.6074 4.55116 69.4366 4.15819 69.6673 3.84698C70.0325 3.39991 70.2407 4.04766 70.6243 3.79649C70.3418 2.50213 68.1555 3.87313 69.3755 5.19512C70.2905 6.2013 71.7856 5.50948 72.2677 4.43702C72.7113 3.44253 72.3517 2.3041 71.6463 1.5542C70.4643 0.291249 68.6655 0.314925 67.3037 1.20365C64.4075 3.1362 64.9283 7.40796 67.2936 9.54237C67.7704 9.99669 68.305 10.3536 68.878 10.6522C67.2506 10.8926 65.642 11.2312 64.0332 11.6284C61.9839 12.1393 59.9724 12.7875 58.018 13.5145C56.2767 13.4996 54.5369 13.0344 53.1625 12.083C51.2918 10.7554 50.1538 7.8681 51.8828 5.92551C52.6321 5.09024 53.8389 4.70913 54.8316 5.38321C55.2707 5.70018 55.6897 6.25188 55.6686 6.81936C55.6471 7.50429 54.9361 8.33988 54.2103 7.94215C53.9239 7.76351 53.6955 7.4092 53.8881 7.07809C54.196 6.5718 54.4618 7.1809 54.8073 6.87067C54.3714 5.6533 52.3946 7.31971 53.7684 8.44729C54.8179 9.3176 56.1988 8.42904 56.5281 7.27697C56.8379 6.24218 56.325 5.16116 55.5427 4.50847C54.207 3.42037 52.4073 3.69851 51.1788 4.78412C48.5874 7.09121 49.6826 11.27 52.298 13.0543C53.367 13.7877 54.6093 14.2095 55.891 14.3379C53.0548 15.5076 50.2754 16.8539 47.553 18.2986C46.8373 18.6839 46.1215 19.0758 45.4057 19.4742C43.4917 19.5752 41.484 19.1468 39.9569 18.0571C38.0863 16.7295 36.9482 13.8422 38.6772 11.9192C39.4264 11.0839 40.6334 10.6833 41.626 11.3769C42.0651 11.6743 42.465 12.2258 42.463 12.7935C42.4415 13.4784 41.7306 14.314 41.0048 13.9163C40.7184 13.7376 40.49 13.3833 40.6825 13.0522C40.9905 12.5459 41.2562 13.155 41.6018 12.8448C41.1468 11.6273 39.1891 13.2938 40.5629 14.4214C41.6123 15.2917 42.9932 14.4032 43.3226 13.2511C43.6324 12.2163 43.1194 11.1549 42.318 10.502C40.9824 9.39433 39.2018 9.67263 37.9733 10.7582C35.3818 13.0849 36.4579 17.244 39.0923 19.048C40.4859 19.9995 42.1876 20.4057 43.8525 20.3808C39.634 22.8305 35.4342 25.4174 30.855 27.0614C28.3066 27.9987 25.3767 28.5999 22.7784 27.4226C20.6195 26.4449 18.1957 24.584 17.9944 21.9593C17.8482 20.0201 20.0624 16.1242 22.4888 17.2413C24.4184 18.1192 23.704 19.9335 21.9812 20.0948C23.4479 22.0258 25.6052 23.4733 28.0012 22.3194C30.3014 21.2234 31.5357 18.474 31.2383 15.9659C30.4949 9.69561 23.2674 8.00874 18.513 10.493C13.2986 13.1886 10.1007 19.2879 10.673 25.2436C11.2272 30.925 15.0534 36.6541 19.4043 40.0975V40.0975ZM15.4402 13.6572C13.0972 16.0643 12.1167 28.29 22.9381 30.9866C28.4253 32.3453 34.3628 30.8108 39.3829 28.9748C46.2232 26.4498 52.874 23.4142 59.7713 21.0267C71.65 16.9008 83.6901 15.8299 95.5367 20.8646C106.294 25.4201 115.164 33.4046 123.248 41.8717C115.823 36.6597 107.145 33.8641 98.0761 33.4142C85.5824 32.8369 73.2859 36.0589 61.2959 39.1855C55.0519 40.8153 48.7885 42.5231 42.3939 43.4468C36.5161 44.3163 30.2577 44.5952 24.6206 42.3152C14.1107 38.0945 6.31781 23.0333 15.4402 13.6572V13.6572Z" fill="#272727"/>
</g>
</svg>
